<?xml version="1.0" encoding="UTF-8" standalone="no"?>
<!-- Created with Inkscape (http://www.inkscape.org/) -->

<svg
   xmlns:dc="http://purl.org/dc/elements/1.1/"
   xmlns:cc="http://creativecommons.org/ns#"
   xmlns:rdf="http://www.w3.org/1999/02/22-rdf-syntax-ns#"
   xmlns:svg="http://www.w3.org/2000/svg"
   xmlns="http://www.w3.org/2000/svg"
   xmlns:sodipodi="http://sodipodi.sourceforge.net/DTD/sodipodi-0.dtd"
   xmlns:inkscape="http://www.inkscape.org/namespaces/inkscape"
   id="svg2"
   version="1.1"
   inkscape:version="0.48.4 r9939"
   width="369.4625"
   height="375.375"
   xml:space="preserve"
   sodipodi:docname="seal.eps"
   inkscape:export-filename="seal.png"
   inkscape:export-xdpi="90"
   inkscape:export-ydpi="90"><metadata
     id="metadata8"><rdf:RDF><cc:Work
         rdf:about=""><dc:format>image/svg+xml</dc:format><dc:type
           rdf:resource="http://purl.org/dc/dcmitype/StillImage" /><dc:title></dc:title></cc:Work></rdf:RDF></metadata><defs
     id="defs6"><clipPath
       clipPathUnits="userSpaceOnUse"
       id="clipPath18"><path
         d="m 0,0 2955.71,0 0,3003 L 0,3003 0,0 z"
         id="path20" /></clipPath></defs><sodipodi:namedview
     pagecolor="#ffffff"
     bordercolor="#666666"
     borderopacity="1"
     objecttolerance="10"
     gridtolerance="10"
     guidetolerance="10"
     inkscape:pageopacity="0"
     inkscape:pageshadow="2"
     inkscape:window-width="640"
     inkscape:window-height="480"
     id="namedview4"
     showgrid="false" /><g
     id="g10"
     inkscape:groupmode="layer"
     inkscape:label="ink_ext_XXXXXX"
     transform="matrix(1.25,0,0,-1.25,0,375.375)"><g
       id="g12"
       transform="scale(0.1,0.1)"><g
         id="g14"><g
           id="g16"
           clip-path="url(#clipPath18)"><path
             d="m 609.242,1964.65 1725.01,0 0,35 -1725.01,0 0,-35 z"
             style="fill:#6A4726;fill-opacity:1;fill-rule:nonzero;stroke:none"
             id="path22" /><path
             d="m 659.242,2017.15 1625.01,0 0,15 -1625.01,0 0,-15 z"
             style="fill:#6A4726;fill-opacity:1;fill-rule:nonzero;stroke:none"
             id="path24" /><path
             d="m 719.242,2047.15 1505.01,0 0,15 -1505.01,0 0,-15 z"
             style="fill:#6A4726;fill-opacity:1;fill-rule:nonzero;stroke:none"
             id="path26" /><path
             d="m 779.242,2082.15 1385.01,0 0,10 -1385.01,0 0,-10 z"
             style="fill:#6A4726;fill-opacity:1;fill-rule:nonzero;stroke:none"
             id="path28" /><path
             d="m 2165.5,2363.78 0.41,10.79 -1390.418,0.08 0,-11.25 1390.008,0.38"
             style="fill:#6A4726;fill-opacity:1;fill-rule:nonzero;stroke:none"
             id="path30" /><path
             d="m 775.012,2383.88 c 3.605,0.77 709.378,111.25 709.378,111.25 l -2.85,0.01 c 0,0 674.81,-111.18 681.25,-111.87 4.58,-0.49 8.96,16.38 2.91,17.76 -12.72,2.91 -681.25,111.88 -681.25,111.88 l -1.42,0.23 -1.43,-0.22 c 0,0 -701.842,-110.06 -709.377,-111.25 -4.856,-0.77 -0.817,-18.55 2.789,-17.79"
             style="fill:#6A4726;fill-opacity:1;fill-rule:nonzero;stroke:none"
             id="path32" /><path
             d="m 977.992,2387.78 503.768,75.7 478.11,-75.08 53.75,0 -530.79,87.58 -571.713,-88.2 66.875,0"
             style="fill:#6A4726;fill-opacity:1;fill-rule:nonzero;stroke:none"
             id="path34" /><path
             d="m 909.199,1754.86 1,0 0,0.9922 -1,0 0,-0.9922 z"
             style="fill:#231f20;fill-opacity:1;fill-rule:nonzero;stroke:none"
             id="path36" /><path
             d="m 2336.95,1777.77 0,-651.46 0.05,-8.14 c 0.42,-51.6 1.13,-137.971 -148.44,-239.209 L 1482.37,398.871 774.922,878.961 C 625.367,980.199 626.07,1066.57 626.488,1118.17 l 0.047,8.14 0,651.46 c 0,74.76 -12.824,98.64 -32.234,134.8 -0.254,0.47 -0.52,0.97 -0.774,1.45 l 1776.443,0 c -0.26,-0.48 -0.53,-0.98 -0.78,-1.45 -19.41,-36.16 -32.24,-60.04 -32.24,-134.8 z m 51.67,158.75 -1832.171,0 8.41,-16.39 c 3.383,-6.59 6.551,-12.49 9.618,-18.2 18.433,-34.33 29.558,-55.06 29.558,-124.16 l 0,-651.46 -0.047,-7.96 c -0.453,-56.11 -1.222,-150.018 158.321,-258.018 l 713.741,-484.371 6.32,-4.289 c 0.01,0.008 6.33,4.297 6.33,4.297 l 712.48,484.363 c 159.54,108 158.78,201.908 158.32,258.018 l -0.05,7.96 0,651.46 c 0,69.1 11.13,89.83 29.56,124.16 3.07,5.71 6.24,11.61 9.62,18.2 l 8.41,16.39 -18.42,0"
             style="fill:#6A4726;fill-opacity:1;fill-rule:nonzero;stroke:none"
             id="path38" /><path
             d="m 1873.62,1030.27 c -6.44,-7.33 -10.18,-7.37 -10.18,-7.37 -5,0.99 -4.94,3.12 -9.88,7.75 -4.94,4.62 -0.21,8 5.06,13.37 129.38,131.88 295,195 309.38,193.13 -78.75,-26.88 -212.5,-113.75 -294.38,-206.88"
             style="fill:#6A4726;fill-opacity:1;fill-rule:nonzero;stroke:none"
             id="path40" /><path
             d="m 2139.87,1207.15 c 5.63,0 18.13,8.75 26.69,5.49 -29.81,-19.24 -33.56,-8.62 -57,-17.99 5.09,6.69 14.67,12.5 30.31,12.5"
             style="fill:#6A4726;fill-opacity:1;fill-rule:nonzero;stroke:none"
             id="path42" /><path
             d="m 2155.56,1190.65 c -3.19,-7.25 -6.94,-7.88 -13.19,-10.38 -42.14,-16.85 -47.5,0.63 -75.81,-12.63 22.06,17.63 40.58,7.04 63.94,16.38 6.25,2.5 15.62,6.88 25.06,6.63"
             style="fill:#6A4726;fill-opacity:1;fill-rule:nonzero;stroke:none"
             id="path44" /><path
             d="m 2146.75,1172.15 c -33.13,-41.25 -88.75,-17.5 -127.19,-37.5 10.94,12.5 49.06,19.37 79.69,21.87 28.71,2.34 32.36,6.79 47.5,15.63"
             style="fill:#6A4726;fill-opacity:1;fill-rule:nonzero;stroke:none"
             id="path46" /><path
             d="m 1977.56,1101.65 c 6.69,17.37 46.34,23.74 65.44,24.25 23.75,0.62 50,-4.38 93.56,16.74 -58.56,-47.37 -132.94,-19.87 -159,-40.99"
             style="fill:#6A4726;fill-opacity:1;fill-rule:nonzero;stroke:none"
             id="path48" /><path
             d="m 2124.87,1119.02 c -21.89,-15.57 -36.35,-26.09 -66.25,-32.5 -13.82,-2.96 -34.37,-4.37 -73.12,-6.87 -21.05,-1.36 -28.94,-5 -46.94,-12.01 22,21.01 47.69,23.26 75.69,28.26 38,4 66.81,-1.75 110.62,23.12"
             style="fill:#6A4726;fill-opacity:1;fill-rule:nonzero;stroke:none"
             id="path50" /><path
             d="m 2104.25,1072.15 c -7,-12.01 -14.69,-16.5 -26.69,-25.5 -4,-6 6.06,-13.88 0,-25 -14.56,1.75 -8.31,13 -20,17 2,8.99 21.06,3.5 36,30 -11.19,-6.5 -30.45,-11.97 -43.06,-14.63 -56.25,-11.87 -99.94,8.62 -144.94,-21.38 -10,-3.99 -10,-3.99 -10,-3.99 44.5,48.84 114.98,27.62 164.94,39.75 14.93,3.62 35.06,10.25 49.06,21.25 0,0 -2.31,-13.5 -5.31,-17.5"
             style="fill:#6A4726;fill-opacity:1;fill-rule:nonzero;stroke:none"
             id="path52" /><path
             d="m 1869.56,993.648 c 3.44,-4 4.06,-9 8,-3 25.9,39.462 74,49.002 121,41.992 39,-6.99 73,-22.99 111,-30 29,-4.999 55,-10.992 86,-10.992 5.56,-11.378 17,-17 27,-22 4.19,-1.878 6.69,-6.878 -6.44,-5.628 l -320.56,-0.372 c -6.31,-5.25 5.56,-9.628 -3.19,-14 l -39.81,0 c -7,4 4,10 -2,15 l -328,0 c 5,6 8,17 17,19 27,3.993 44.94,6.493 77,20.002 32.06,13.5 92,36 142,41 44,4 88,-12.01 111,-51.002"
             style="fill:#6A4726;fill-opacity:1;fill-rule:nonzero;stroke:none"
             id="path54" /><path
             d="m 1834.56,946.648 c 8,-1 -1,-10 7,-11 l 64.56,0.25 c 9.38,0 0,10 8.44,10 l 313.44,0 c 4.69,-0.378 5.62,-15 0.13,-14.687 l -291.01,0 c -12.25,-0.313 6.5,-14.691 -10.37,-14.063 l -109.19,-0.5 c -8.94,1.122 4.19,13 -12,13 -14,-11 -25,-24 -36,-37.007 0,-0.993 0,-2.993 2,-2.993 53,25 120,4 175,22 -12,-9.007 -28,-13 -43,-16 -55,-12 -125,5 -166,-41 0,-1 0,-3 1,-3 32,20 64.81,22.622 103.81,23.622 20,1 45,4.378 70.19,8.378 -60,-31.007 -145,0 -195,-58 l 1,-1 c 17,2.993 27.56,17.5 46,20 42.04,5.692 85,10 127,19 -18.56,-6.5 -28.06,-9.589 -32.94,-10.878 -11.87,-3.122 -38.75,-11.872 -85,-17.5 -20.25,-2.461 -35.62,-10.75 -49.06,-16.622 -13.44,-5.878 -27,-18 -35,-31.007 2,-3.993 6,0 8,1.007 46,42 116,28.993 169,53 -6.69,-12 -39.81,-18.25 -54.81,-22.628 -21.44,-6.25 -48.07,-8.598 -71.25,-18.122 -45.63,-18.75 -59.49,-14.957 -103.75,-107.5 -6.88,-14.378 -10.19,-21.75 -18.19,-28.75 -25,-10 -48,-27.007 -66,-48 7,17 18,37 31,54 0,1 -1,-6 2,-8.007 10,10 28,8.007 34,23.007 19,31 34,65 55,95 32,51.993 73,100 119,143 1,1 0,3 0,5 -8,3 -16,3 -24,0 -51,-52 -87,-113 -126,-168 -11,-14 -23.94,-34.5 -34.94,-48.5 10,17.5 82.25,129.243 73.94,116.5 -8.31,-12.75 44,65 67,95 1,3 -0.18,6.25 -2.19,7.25 l -234.81,-0.25 c -5.19,0 -4.56,16 1,16 l 321,0"
             style="fill:#6A4726;fill-opacity:1;fill-rule:nonzero;stroke:none"
             id="path56" /><path
             d="m 1577.37,915.898 c 2.5,0.153 38.75,3.75 38.75,3.75 6.25,0 8.13,-2.5 10,-5.628 1.88,-3.122 4.38,-7.5 6.25,-10.622 1.88,-3.128 1.88,-5.628 -2.5,-8.75 -4.37,-3.128 -16.25,-12.5 -20,-15 -3.75,-2.5 -4.64,-5.386 -1.87,-10 1.87,-3.128 3.75,-4.378 7.5,-3.128 3.75,1.25 21.25,8.128 26.25,10 5,1.878 6.25,1.25 8.75,-1.872 2.5,-3.128 8.75,-10 10.62,-12.5 1.88,-2.5 0.04,-4.507 -2.5,-8.128 -4.37,-6.25 -10,-15 -12.5,-18.122 -2.5,-3.128 -3.75,-7.5 0,-10.628 3.75,-3.122 6.88,-4.372 10.63,-1.872 3.75,2.5 19.37,13.75 22.5,16.25 -1.88,-5.628 -3.13,-6.878 -3.75,-9.378 -4.38,-4.372 -16.88,-14.372 -19.38,-16.25 -2.5,-1.872 -6.25,-3.75 -10.62,-0.622 -4.38,3.122 -13.75,11.872 -15.63,14.372 -1.87,2.5 -3.75,6.25 -1.25,9.378 2.5,3.122 13.13,16.25 15.63,19.372 2.5,3.128 1.87,5.628 0,8.75 -1.88,3.128 -4.38,5 -8.13,3.75 -3.75,-1.25 -20,-8.75 -23.12,-10 -3.13,-1.25 -6.25,-2.5 -8.75,0.628 -2.5,3.122 -8.13,13.122 -10,16.25 -1.88,3.122 -0.63,5 2.5,7.5 3.12,2.5 15.62,13.122 18.75,15.622 3.12,2.5 3.12,5 1.25,8.128 -1.88,3.122 -3.75,6.25 -7.5,5.622 -3.75,-0.622 -24.38,-4.372 -27.5,-4.372 -3.13,0 -2.5,3.75 -4.38,7.5"
             style="fill:#6A4726;fill-opacity:1;fill-rule:nonzero;stroke:none"
             id="path58" /><path
             d="m 1707.37,774.648 c 0,0 10.63,4.372 13.75,6.25 -1.87,-5 -1.25,-4.378 -3.12,-7.5 -1.88,-3.128 -4.38,-1.878 -10.63,1.25"
             style="fill:#6A4726;fill-opacity:1;fill-rule:nonzero;stroke:none"
             id="path60" /><path
             d="m 1744.87,791.52 c 0,0 -3.75,-17.5 -4.37,-23.122 -0.63,-5.628 1.25,-10 4.37,-11.878 3.13,-1.872 19.38,-5 22.5,-5.622 3.13,-0.628 6.88,0 8.75,4.372 1.88,4.378 6.88,18.75 8.75,23.128 1.88,4.372 5.02,6.942 8.13,6.25 5.62,-1.25 6.87,-3.75 6.87,-9.378 0,-5.622 1.88,-19.372 2.5,-23.122 0.63,-3.75 3.75,-6.25 7.5,-6.25 3.75,0 18.75,0 22.5,0 3.75,0 6.88,0.622 6.88,6.25 0,5.622 1.25,20.622 1.87,25 0.63,4.372 3.13,5.622 7.5,6.25 4.38,0.622 8.13,0.622 10,-4.378 1.88,-5 7.5,-20.622 9.38,-23.75 1.87,-3.122 4.37,-3.122 9.37,-2.5 5,0.628 16.25,4.378 21.25,5 5,0.628 4.38,2.5 3.13,7.5 -1.25,5 -3.75,21.25 -4.38,25.628 -0.62,4.372 1.88,6.872 6.25,8.75 4.38,1.872 8.75,1.872 11.88,-2.5 3.12,-4.378 10,-16.878 12.5,-20 2.5,-3.128 6.25,-4.378 11.25,-1.878 5,2.5 17.5,8.75 21.87,11.878 4.38,3.122 4.38,3.75 1.88,8.122 -2.5,4.378 -9.38,18.128 -11.25,21.878 -1.88,3.75 -0.63,8.122 4.37,11.872 5,3.75 8.13,5 13.13,0.628 5,-4.378 15,-12.5 18.12,-15 3.13,-2.5 6.25,-1.878 8.75,0 2.5,1.872 13.75,12.5 16.25,16.25 2.5,3.75 1.88,5 -1.25,8.75 -3.12,3.75 -13.75,15 -15.62,17.5 -1.88,2.5 -3.13,7.5 0,11.872 3.12,4.378 8.75,5 12.5,3.128 3.75,-1.878 17.5,-8.75 21.25,-10.628 3.75,-1.872 8.12,-0.622 9.37,1.878 1.25,2.5 9.38,16.25 10.63,19.372 1.25,3.128 0.62,6.25 -3.13,8.128 -3.75,1.872 -18.12,11.872 -21.25,13.75 -3.12,1.872 -3.12,6.872 -1.25,10.622 1.88,3.75 6.88,3.128 10,2.5 3.13,-0.622 20.63,-4.372 25,-5 4.38,-0.622 3.13,4.378 3.75,7.5 -4.37,1.878 -10,3.75 -10,3.75 0,0 -24.45,1.718 -29.37,0.628 -5.63,-1.25 -8.13,-3.128 -10,-6.25 -1.88,-3.128 -4.38,-9.378 2.5,-13.75 6.87,-4.378 15,-10 18.12,-12.5 3.13,-2.5 5,-5.628 1.88,-11.878 -3.13,-6.25 -5.63,-10 -11.25,-7.5 -5.63,2.5 -16.88,7.5 -20.63,9.378 -3.75,1.872 -7.5,1.872 -10,-0.628 -2.5,-2.5 -6.87,-8.122 -8.75,-10 -1.87,-1.872 -3.12,-6.872 0.63,-10.622 3.75,-3.75 11.25,-11.878 15,-16.25 3.75,-4.378 3.75,-7.5 1.25,-10 -2.5,-2.5 -6.25,-4.378 -8.13,-6.878 -1.87,-2.5 -6.25,-3.75 -10.62,0.628 -4.38,4.372 -11.25,10 -15,13.122 -3.75,3.128 -7.5,3.75 -11.88,0.628 -4.37,-3.128 -10,-6.878 -13.75,-10 -3.75,-3.128 -3.12,-4.378 -1.25,-9.378 1.88,-5 8.13,-18.75 10,-22.5 1.88,-3.75 1.25,-6.25 -1.87,-8.122 -3.13,-1.878 -4.38,-3.128 -8.13,-4.378 -3.75,-1.25 -6.87,0 -10,4.378 -3.12,4.372 -8.12,11.872 -10.62,16.25 -2.5,4.372 -5.63,5.622 -10.63,3.75 -5,-1.878 -11.25,-4.378 -15.62,-6.25 -4.38,-1.878 -5,-3.75 -3.75,-8.75 1.25,-5 3.75,-20 4.37,-23.128 0.63,-3.122 0.63,-6.25 -3.12,-7.5 -3.75,-1.25 -6.88,-2.5 -10,-3.122 -3.13,-0.628 -6.88,0.622 -8.13,5 -1.25,4.372 -6.25,16.25 -6.87,20.622 -0.63,4.378 -3.75,6.878 -8.75,6.25 -4.34,-0.54 -11.25,-1.25 -15.63,-1.872 -4.37,-0.628 -6.87,-3.75 -6.25,-7.5 0.63,-3.75 -1.25,-20.628 -1.87,-24.378 -0.63,-3.75 -3.13,-5 -6.88,-5.622 -3.75,-0.628 -6.87,0.622 -10,0.622 -3.12,0 -4.37,3.128 -5,5.628 -0.62,2.5 -1.87,11.872 -2.5,17.5 -0.62,5.622 -1.87,12.5 -5,13.122 -3.12,0.628 -9.36,0.679 -12.5,1.25 -6.87,1.25 -10.67,-0.77 -11.87,-4.372 -2.5,-7.5 -6.25,-18.128 -6.88,-21.25 -0.62,-3.128 -1.87,-6.878 -5.62,-6.878 -3.75,0 -11.25,1.878 -13.75,3.128 -2.5,1.25 -2.5,4.372 -1.88,6.872 0.63,2.5 1.88,13.75 3.75,24.378 l -11.25,-4.378"
             style="fill:#6A4726;fill-opacity:1;fill-rule:nonzero;stroke:none"
             id="path62" /><path
             d="m 1559.25,997.148 c 0,0 8.75,0.622 10.62,1.25 1.88,0.622 0.63,7.502 1.25,11.252 0.63,3.75 1.25,6.25 5.63,6.25 4.37,0 16.87,1.87 21.87,1.87 5,0 9.38,1.88 10,6.88 0.63,5 1.25,8.12 1.25,13.12 0,5 -0.62,8.13 -6.25,10 -5.62,1.88 -18.12,8.13 -21.87,9.38 -3.75,1.25 -5,3.12 -4.38,6.87 0.63,3.75 1.25,6.88 1.88,9.38 0.62,2.5 2.5,6.87 6.87,5.62 4.38,-1.25 20,-3.75 23.75,-4.37 3.75,-0.63 7.5,-1.25 9.38,2.5 1.87,3.75 3.75,8.75 5.62,13.12 1.88,4.38 1.25,6.88 -2.5,9.38 -3.75,2.5 -18.12,12.5 -21.25,15 -3.12,2.5 -2.5,4.37 -1.25,6.87 1.25,2.5 3.13,5 5,7.5 1.88,2.5 4.38,3.75 7.5,2.5 3.13,-1.25 16.88,-8.12 20.63,-9.37 3.75,-1.25 8.75,-0.63 11.25,2.5 2.5,3.12 7.5,10 10.62,13.12 3.13,3.13 1.88,5.63 -1.25,9.38 -3.12,3.75 -13.12,15.62 -15.62,18.75 -2.5,3.12 -2.5,6.25 -0.63,8.12 1.88,1.88 6.25,4.38 8.75,6.25 2.5,1.88 5,0.63 6.88,-1.25 1.87,-1.87 14.37,-12.5 16.87,-14.37 2.5,-1.88 6.25,-3.75 9.38,-1.25 3.12,2.5 12.5,10 15,12.5 2.5,2.5 3.75,4.37 1.87,8.75 -1.87,4.37 -8.75,19.37 -10,23.12 -1.25,3.75 0,4.38 1.88,6.25 1.87,1.88 7.5,5 10.62,6.88 3.13,1.87 5,-1.25 6.88,-3.75 1.87,-2.5 12.5,-16.88 15,-20 2.5,-3.13 5.62,-1.88 10,0 4.37,1.87 11.25,4.37 14.37,6.25 3.13,1.87 3.75,4.37 3.13,6.87 -0.63,2.5 -3.75,16.88 -5,21.88 -1.25,5 0,8.75 3.12,9.37 3.13,0.63 11.25,3.13 13.75,3.75 2.5,0.63 6.25,-4.37 6.88,-7.5 0.62,-3.12 6.25,-15 7.5,-18.12 1.25,-3.13 3.75,-6.88 8.12,-6.25 4.38,0.62 13.75,1.25 16.88,1.25 3.12,0 5,2.5 5,6.87 0,4.38 1.87,18.13 2.5,22.5 0.62,4.38 3.75,8.13 8.12,8.13 4.38,0 4.38,0.62 7.5,0 3.13,-0.63 4.38,-4.38 5,-8.75 0.63,-4.38 2.5,-16.88 2.5,-20.63 0,-3.75 1.88,-6.87 5,-7.5 3.13,-0.62 13.13,-1.87 16.88,-2.5 3.75,-0.62 6.87,2.5 8.12,6.25 1.25,3.75 6.88,17.5 8.75,21.88 1.88,4.37 3.75,5 6.25,4.37 2.5,-0.62 6.25,-1.25 10,-2.5 3.75,-1.25 3.75,-5.62 3.13,-8.75 -0.63,-3.12 -3.13,-18.12 -3.75,-21.25 -0.63,-3.12 -0.63,-6.87 2.5,-8.12 3.12,-1.25 12.5,-5 16.87,-6.88 4.38,-1.87 7.5,3.13 9.38,6.25 1.87,3.13 7.5,11.88 9.37,15 1.88,3.13 4.38,6.25 10,4.38 5.63,-1.88 5.63,-2.5 8.75,-4.38 3.13,-1.87 3.13,-6.25 1.25,-10 -1.87,-3.75 -6.87,-16.87 -8.75,-21.25 -1.87,-4.37 -1.25,-5.62 1.25,-7.5 2.5,-1.87 12.5,-7.5 15.63,-9.37 3.12,-1.88 6.25,0 8.75,1.87 2.5,1.88 15,10.63 17.5,13.75 2.5,3.13 6.87,4.38 8.75,2.5 1.87,-1.87 3.12,-3.75 5.62,-6.87 2.5,-3.13 1.88,-5 -0.62,-8.13 -2.5,-3.12 -8.13,-10 -9.38,-13.12 4.38,-6.25 18.13,5.62 18.13,5.62 0,0 3.75,4.38 5.62,9.38 1.88,5 3.13,5 -0.62,8.75 -3.75,3.75 -11.88,10 -15,11.87 -3.13,1.88 -7.5,1.25 -10,-1.25 -2.5,-2.5 -16.25,-12.5 -18.75,-15 -2.5,-2.5 -6.88,-4.37 -12.5,0.63 -5.63,5 -3.75,6.87 -2.5,9.37 1.25,2.5 6.87,15.63 8.75,21.25 1.87,5.63 4.37,9.38 0.62,11.88 -3.75,2.5 -14.37,7.5 -18.75,10 -4.37,2.5 -9.37,3.75 -11.87,-0.63 -2.5,-4.37 -10,-18.12 -13.13,-22.5 -3.12,-4.37 -4.37,-4.37 -10,-2.5 -5.62,1.88 -5,5.63 -4.37,10.63 0.62,5 1.87,15.62 3.12,21.25 1.25,5.62 0,8.12 -4.37,10 -4.38,1.87 -17.5,4.37 -21.88,5.62 -4.37,1.25 -8.12,-0.62 -9.37,-5 -1.25,-4.37 -6.88,-20 -8.75,-24.37 -1.88,-4.38 -3.75,-4.38 -8.75,-3.75 -5,0.62 -5.63,1.25 -6.25,5 -0.63,3.75 -3.13,23.12 -3.75,28.12 -0.63,5 -6.25,6.25 -8.13,6.25 -7.5,0 -14.37,0 -19.37,0 -5,0 -7.5,-2.5 -7.5,-6.87 0,-4.38 -3.13,-22.5 -3.13,-26.88 0,-4.37 -2.5,-5 -7.5,-5.62 -5,-0.63 -6.87,1.25 -8.12,4.37 -1.25,3.13 -6.88,18.75 -9.38,23.75 -2.5,5 -5,6.88 -12.5,5 -7.5,-1.87 -15,-3.75 -20,-5 -5,-1.25 -6.87,-4.37 -5.62,-9.37 1.25,-5 3.75,-20.63 5,-25 1.25,-4.38 -0.63,-5.63 -4.38,-8.13 -3.75,-2.5 -8.75,-1.87 -11.25,0.63 -2.5,2.5 -14.37,18.75 -16.87,22.5 -2.5,3.75 -6.88,4.37 -11.25,1.87 -4.38,-2.5 -13.75,-8.12 -16.88,-10 -3.12,-1.87 -5,-5 -2.5,-10 2.5,-5 8.13,-19.37 10,-23.75 1.88,-4.37 1.25,-6.25 -4.37,-10.62 -5.63,-4.38 -8.75,-3.75 -11.88,-1.25 -3.12,2.5 -14.37,12.5 -18.12,15.62 -3.75,3.13 -6.25,4.38 -10,1.25 -3.75,-3.12 -13.13,-12.5 -16.88,-15.62 -3.75,-3.13 -0.62,-6.88 2.5,-9.38 3.13,-2.5 13.13,-16.87 15.63,-19.37 2.5,-2.5 2.5,-6.25 -1.25,-11.25 -3.75,-5 -2.5,-6.25 -10.63,-3.75 -8.12,2.5 -15.62,6.87 -22.5,10 -6.87,3.12 -10,1.25 -13.12,-4.38 -3.13,-5.62 -6.25,-11.87 -8.13,-15 -1.87,-3.12 -1.87,-9.37 1.25,-11.25 3.13,-1.87 20,-14.37 23.13,-15.62 3.12,-1.25 3.12,-3.75 1.25,-8.13 -1.88,-4.37 -2.5,-7.5 -10,-6.25 -7.5,1.25 -18.75,3.75 -23.13,3.75 -4.37,0 -9.37,0.63 -11.25,-6.25 -1.87,-6.87 -3.12,-12.5 -3.75,-16.25 -0.62,-3.75 -1.25,-6.25 5,-9.37 6.25,-3.13 20,-8.75 24.38,-10.63 4.37,-1.87 5,-3.75 4.37,-10.62 -0.62,-6.88 -4.37,-7.5 -8.75,-8.13 -4.37,-0.62 -16.87,-1.87 -22.5,-2.5 -5.62,-0.62 -9.37,-1.87 -9.37,-8.12 0,-6.25 -0.63,-11.25 0,-18.752"
             style="fill:#6A4726;fill-opacity:1;fill-rule:nonzero;stroke:none"
             id="path64" /><path
             d="m 1765.93,1667.15 c -23,-13 -43.49,-37.63 -44.81,-62.5 -1.24,-23.6 4.01,-37.58 25.81,-48.5 26.69,-13.38 73.21,12.6 87.94,30.37 11.81,14.25 21.88,28.13 20.07,47.63 -19.44,34.25 -56,52 -89.01,33"
             style="fill:#6A4726;fill-opacity:1;fill-rule:nonzero;stroke:none"
             id="path66" /><path
             d="m 2058.94,1683.15 c -12.01,8 -25.94,20.25 -63.01,16 -41.92,-4.81 -78,-42 -93,-82 3,-25 16.01,-50 37.01,-65 20.99,-18 51.99,-19 77.99,-11 29,13.99 54,38 63,68.99 6,26.01 0,56.01 -21.99,73.01"
             style="fill:#6A4726;fill-opacity:1;fill-rule:nonzero;stroke:none"
             id="path68" /><path
             d="m 2121.93,1583.15 c -14,-34 -41.63,-89.22 -121,-103.01 -46.06,-7.99 -80,14.01 -101.99,49.01 -11.01,14 -16.13,30.37 -25.13,45.37 l -0.19,1.38 c -28,-39 -71.69,-77.75 -123.68,-72.75 -30,3 -61,24 -70,55 -19.01,51 -2.57,105.25 37.43,139.62 24.67,21.2 58.56,36.38 91.57,27.37 31,-6.99 55,-35 70,-61.99 31,41.99 76.56,87.75 141,90 48.79,1.7 85.99,-24 102.99,-64 14,-32 12.01,-74.01 -1,-106 z m -639.56,342.96 0,-636.46 861.46,0 4.79,526.66 c 0,0 26.67,98.96 40,108.96 -68.33,0 -906.25,0.84 -906.25,0.84"
             style="fill:#6A4726;fill-opacity:1;fill-rule:nonzero;stroke:none"
             id="path70" /><path
             d="m 1164.87,850.898 c -20.62,-9.378 -38.34,-0.066 -45,4.372 -5.62,3.75 -18.75,23.128 -16.25,63.128 -41.87,-50 -91.87,-76.878 -137.503,-62.5 -50.195,15.813 -44.375,85.622 -40.625,109.372 1.656,10.492 20.625,82.5 68.125,128.13 98.173,94.29 172.093,22.75 181.883,12.5 13.75,18.12 19.37,23.12 27.5,28.12 14.05,8.65 37.5,10.63 34.37,-20.62 -3.04,-30.48 -38.75,-75.63 -63.12,-106.88 -24.38,-31.25 -31.32,-55.348 -23.13,-79.372 9.38,-27.5 25.63,-24.378 42.5,-15.628 20.85,10.808 41.25,31.878 57.5,55 2.97,4.23 7.19,-0.481 6.88,-1.872 -22.66,-72.269 -72.5,-104.378 -93.13,-113.75 z M 612.16,1289.65 c 0.207,-28.34 4.793,-93.34 4.793,-226.67 20,-126.671 166.664,-196.671 203.332,-225 36.668,-28.332 662.085,-452.71 662.085,-452.71 l 0,904.38 -870.21,0"
             style="fill:#6A4726;fill-opacity:1;fill-rule:nonzero;stroke:none"
             id="path72" /><path
             d="m 1094.87,1104.02 c -28.02,-6.52 -55.62,-29.37 -73.75,-58.75 -13.65,-22.13 -49.378,-75.622 -36.253,-111.872 13.863,-38.289 40.363,-33.148 66.883,-18.128 37.5,21.25 52.5,51.878 65,66.25 17.5,54.38 39.37,87.5 41.87,95 -9.37,18.75 -36.87,33.75 -63.75,27.5"
             style="fill:#6A4726;fill-opacity:1;fill-rule:nonzero;stroke:none"
             id="path74" /><path
             d="m 798.039,2092.15 c -3.203,0 -5.047,0 -5.047,0 1.481,0 3.235,-0.01 5.047,0"
             style="fill:#6A4726;fill-opacity:1;fill-rule:nonzero;stroke:none"
             id="path76" /><path
             d="m 2117.26,2312.57 -1294.358,0 c -3.976,0 -7.199,3.22 -7.199,7.2 l 0,18.1 c 0,3.97 3.223,7.2 7.199,7.2 l 1294.358,0 c 3.97,0 7.19,-3.23 7.19,-7.2 l 0,-18.1 c 0,-3.98 -3.22,-7.2 -7.19,-7.2 z m -8.64,-220.42 c 22.79,0 36.85,0 40,0 -6.87,0 -14.37,3.75 -14.37,11.88 0,8.12 0,168.12 0,178.12 0,10 -1.88,14.38 2.5,18.75 4.37,4.38 10,4.38 10,10 0,5.63 0,20 0,28.75 0,8.75 -2.3,11.88 -12.3,11.88 -10,0 -1324.583,0 -1330.833,0 -6.25,0 -8.75,-1.25 -8.75,-8.13 0,-6.87 -0.625,-22.5 0,-28.75 0.625,-6.25 1.875,-10 10,-10 8.125,0 9.375,-3.12 9.375,-9.37 0,-6.25 0,-190 0,-196.88 0,-5.52 -8.824,-6.2 -16.203,-6.25 6.934,0 21.008,0 41.203,0 -5.625,0 -7.5,2.5 -7.5,13.75 0,6.25 4.375,161.83 4.375,177.5 0,3.13 -0.715,6.71 -6.25,7.5 -4.375,0.63 -6.875,13.75 7.5,13.75 13.125,0 31.25,0 39.375,0 13.75,0 9.375,-13.12 4.375,-13.75 -4.16,-0.52 -5.625,-4.35 -5.625,-11.25 0,-13.75 3.406,-131.22 5,-176.25 0,-9.37 -1.25,-11.25 -8.75,-11.25 33.371,0 75.934,0 125.332,0 -5.625,0 -7.5,2.5 -7.5,13.75 0,6.25 4.375,161.83 4.375,177.5 0,3.13 -0.715,6.71 -6.25,7.5 -4.375,0.63 -8.75,15 5.625,15 13.136,0 31.256,0 39.386,0 13.75,0 11.25,-14.37 6.25,-15 -4.16,-0.52 -5.63,-4.35 -5.63,-11.25 0,-13.75 3.41,-131.22 5,-176.25 0,-9.37 -1.25,-11.25 -8.75,-11.25 38.71,0 80.74,0 125.18,0 -5.63,0 -7.5,2.5 -7.5,13.75 0,6.25 4.37,161.83 4.37,177.5 0,3.13 -0.72,6.71 -6.25,7.5 -4.37,0.63 -8.75,15 5.63,15 13.12,0 31.25,0 39.37,0 10.63,0 9.38,-15 4.38,-15.62 -4.16,-0.52 -3.75,-3.73 -3.75,-10.63 0,-13.75 3.4,-131.22 5,-176.25 0,-9.37 -1.25,-11.25 -8.75,-11.25 39.99,0 81.59,0 124.08,0 -5.63,0 -7.5,2.5 -7.5,13.75 0,6.25 4.37,161.83 4.37,177.5 0,3.13 -0.71,6.71 -6.25,7.5 -4.37,0.63 -6.87,13.75 7.5,13.75 13.13,0 31.25,0 39.38,0 13.75,0 9.37,-13.12 4.37,-13.75 -4.16,-0.52 -5.62,-4.35 -5.62,-11.25 0,-13.75 3.41,-131.22 5,-176.25 0,-9.37 -1.25,-11.25 -8.75,-11.25 41.35,0 83.32,0 125.33,0 -5.63,0 -7.5,2.5 -7.5,13.75 0,6.25 4.37,161.83 4.37,177.5 0,3.13 -0.71,6.71 -6.24,7.5 -4.38,0.63 -8.76,15 5.62,15 13.12,0 31.25,0 39.38,0 13.74,0 11.24,-14.37 6.24,-15 -4.16,-0.52 -5.62,-4.35 -5.62,-11.25 0,-13.75 3.41,-131.22 5,-176.25 0,-9.37 -1.25,-11.25 -8.75,-11.25 40.19,0 80.21,0 119.55,0 -5.62,0 -7.5,2.5 -7.5,13.75 0,6.25 4.38,161.83 4.38,177.5 0,3.13 -0.72,6.71 -6.25,7.5 -4.38,0.63 -8.75,15 5.62,15 13.13,0 31.25,0 39.38,0 10.62,0 9.37,-15 4.37,-15.62 -4.16,-0.52 -3.75,-3.73 -3.75,-10.63 0,-13.75 3.4,-131.22 5,-176.25 0,-9.37 -1.25,-11.25 -8.75,-11.25 40.83,0 80.66,0 118.93,0 -5.63,0 -7.5,2.5 -7.5,13.75 0,6.25 4.37,161.83 4.37,177.5 0,3.13 -0.72,6.71 -6.25,7.5 -4.37,0.63 -8.75,15 5.63,15 13.12,0 31.25,0 39.37,0 13.75,0 11.25,-14.37 6.25,-15 -4.16,-0.52 -5.62,-4.35 -5.62,-11.25 0,-13.75 3.4,-131.22 5,-176.25 0,-9.37 -1.25,-11.25 -8.75,-11.25 42.36,0 82.46,0 119.23,0 -5.62,0 -7.5,2.5 -7.5,13.75 0,6.25 4.38,161.83 4.38,177.5 0,3.13 -0.72,6.71 -6.25,7.5 -4.38,0.63 -8.75,15 5.62,15 13.13,0 31.25,0 39.38,0 13.75,0 11.25,-14.37 6.25,-15 -4.16,-0.52 -5.63,-4.35 -5.63,-11.25 0,-13.75 3.41,-131.22 5,-176.25 0,-9.37 -1.25,-11.25 -8.75,-11.25 47.16,0 87.7,0 119.24,0 -5.62,0 -7.5,2.5 -7.5,13.75 0,6.25 4.38,161.83 4.38,177.5 0,3.13 -0.72,6.71 -6.25,7.5 -4.38,0.63 -8.75,15 5.62,15 13.13,0 31.25,0 39.38,0 13.75,0 11.25,-14.37 6.25,-15 -4.16,-0.52 -5.63,-4.35 -5.63,-11.25 0,-13.75 3.41,-131.22 5,-176.25 0,-9.37 -1.25,-11.25 -8.75,-11.25"
             style="fill:#6A4726;fill-opacity:1;fill-rule:nonzero;stroke:none"
             id="path78" /><path
             d="m 762.992,285.898 c -40.625,-14.378 -83.875,-15.628 -120,10 -53.75,38.122 -45.437,67.571 -51.875,71.872 -7.871,5.25 -15.699,-8.911 -22.5,-4.372 -7.152,4.774 -8.051,17.782 -1.25,28.75 20.656,34.114 30.387,50.063 35.625,58.122 8.125,12.5 21.485,12.242 25,10.628 23.125,-10.628 3.75,-21.878 -4.375,-50.628 -11.488,-40.641 -2.722,-69 28.75,-90 41.496,-27.68 105.406,7.23 148.125,71.25 17.664,26.468 29.156,50.691 30,80.628 1.57,41.864 -9.375,67.5 -35,84.372 -23.34,15.371 -69.672,9.699 -102.5,-23.122 -4.375,-4.378 -13.832,2.934 -18.125,9.372 -6.25,9.378 2.613,20.171 5,23.75 3.582,5.371 21.317,16.968 47.5,22.5 44.375,9.378 77.5,0 111.25,-26.872 31.324,-24.949 72.5,-110.628 14.375,-200.628 -23.328,-36.122 -53.996,-62.879 -90,-75.622"
             style="fill:#6A4726;fill-opacity:1;fill-rule:nonzero;stroke:none"
             id="path80" /><path
             d="m 32.7852,1539.65 c -14.8516,-14.85 -2.4805,-33.34 -22.5,-33.34 -11.66801,0 -10.484419,6.88 -10.000044,14.17 0.539063,8.15 1.296874,86.09 1.667964,91.67 0.34376,5.14 4.84376,13.61 9.99998,13.33 15,-0.83 5.0117,-10.29 14.1641,-21.67 9.5273,-12.26 28.6016,-9.52 48.3359,-10.83 l 192.4999,-10 c 8.332,-0.83 14.395,0.02 15,10.83 0.832,15 0.879,25.86 1.664,40 1.668,30 -13.332,44.17 -25.832,52.5 -29.781,19.86 -40,16.67 -35,31.67 3.723,11.17 18.168,10.25 27.5,5 13.332,-7.5 26.567,-14.94 42.5,-25 15.832,-10 30.832,-12.5 26.668,-25 -10.293,-30.87 -11.129,-165.18 -11.668,-173.33 -0.457,-6.87 -11.113,-9.49 -15.832,-9.17 -9.867,0.66 -7.926,11.71 -9.539,23.72 -1.297,9.61 -10.723,17.47 -30.461,18.78 l -176.6718,9.17 c -21.0195,1.39 -37.496,2.5 -42.496,-2.5"
             style="fill:#6A4726;fill-opacity:1;fill-rule:nonzero;stroke:none"
             id="path82" /><path
             d="m 248.617,1767.98 c 13.336,-10 44.547,-26.18 49.168,-38.33 3.285,-8.97 4.535,-12.97 13.332,-15 10.836,-2.5 14.684,3.03 15.836,8.33 4.164,19.17 6.383,40.26 8.332,50 1.668,8.33 0.832,13.33 -5,15 -6.613,1.89 -11.422,2.62 -15.832,-5.83 -10,-19.17 -19.168,-7.5 -30,-0.84 -3.66,2.26 -18.48,12.46 -23.336,15.84 0,0 -11.387,6.57 -6.664,23.33 0,0 25.52,81.38 25.832,82.5 4.192,14.9 3.75,15.94 22.5,17.5 0,0 24.027,1.21 29.168,1.67 25.238,2.24 21.02,-8.9 19.914,-17.51 -0.75,-5.83 -0.75,-8.33 7.586,-9.16 12.68,-1.27 10.832,0 14.164,9.17 3.336,9.16 19.074,55.27 21.668,65 3.332,12.5 1.203,16.35 -5.832,18.33 -8.695,2.45 -11.051,-11.57 -26.668,-14.17 -15,-2.5 -51.539,-5.29 -66.668,-6.66 0,0 -220.8358,-20 -229.1639,-20.84 -8.3359,-0.83 -25.8359,0 -26.6679,-5.83 -0.8321,-5.83 17.5273,-36.63 20.832,-39.17 0,0 174.1678,-123.33 187.4998,-133.33 z m -20,64.17 c -1.664,-6.67 -5.441,-6.9 -14.164,-1.67 -20.836,12.5 -59.168,39.17 -80,54.17 -19.141,13.78 -33.336,20.83 10.832,24.16 28.363,2.14 81.692,6.47 96.668,8.34 6.664,0.83 10.832,0 9.164,-7.5 -2.234,-10.07 -22.5,-77.5 -22.5,-77.5"
             style="fill:#6A4726;fill-opacity:1;fill-rule:nonzero;stroke:none"
             id="path84" /><path
             d="m 386.117,2409.65 c 10.625,-8.75 129.617,-111.9 146.25,-126.87 16.637,-14.98 13.387,-24.4 5.625,-34.38 -8.75,-11.25 -12.609,-14.28 -5.625,-20 6.875,-5.62 19.102,0.84 21.875,3.75 1.516,1.59 52.676,64.42 61.875,76.25 61.25,78.75 60,156.25 -16.875,219.38 -65.433,53.73 -131.359,66.68 -203.75,-9.38 -14.363,-15.09 -70.668,-79.18 -74.433,-84.13 -4.942,-6.49 -6.504,-15.47 -2.442,-18.99 9.375,-8.13 18.953,1.24 29.375,10.62 12.5,11.25 27.5,-7.5 38.125,-16.25 z m 183.125,-91.87 -165,145.62 c -13.75,11.25 -6.875,15.63 1.25,25.63 39.18,48.22 103.918,50.18 161.25,-1.88 54.375,-49.37 61.25,-115.62 28.75,-162.5 -11.469,-16.54 -13.125,-20 -26.25,-6.87"
             style="fill:#6A4726;fill-opacity:1;fill-rule:nonzero;stroke:none"
             id="path86" /><path
             d="m 2349.25,2660.28 c -1.67,3.71 -18.59,11.83 -6.88,24.37 3.73,3.99 11.61,2.56 16.58,-2.08 5.8,-5.43 69.5,-56.25 75.3,-61.67 4.97,-4.64 15.62,-9.37 6.87,-20 -5.6,-6.81 -23.02,7.41 -33.75,8.75 -10,1.25 -22.16,-16.49 -49.37,-45.62 l -45.87,-50.73 c -1.44,-1.54 -2.87,-3.07 -4.3,-4.6 -20.64,-22.11 -37.8,-52.2 -38.58,-64.67 -1.25,-20 1.25,-34.38 16.87,-48.13 12.98,-11.42 37.85,-17.4 60.63,-13.12 10,1.87 31.6,15.93 62.28,48.77 l 49.59,53.1 c 20.35,21.79 39.94,34.4 33.75,49.38 -6.74,15.49 -16.87,18.75 -5,28.12 4.29,3.39 11.83,1.63 16.25,-2.5 5.8,-5.42 55.81,-54.39 60,-58.75 15.63,-16.25 6.59,-18.92 2.5,-21.87 -11.25,-8.13 -15.99,7.77 -27.5,8.75 -10.66,0.76 -30.28,-13.1 -61.25,-46.25 0,0 -53.92,-56.21 -61.68,-62.14 -5.97,-4.56 -30.38,-28.94 -45.82,-53.49 -6.72,-10.69 -2.15,-25.17 1.25,-31.87 3.56,-7.02 4.76,-5.39 1.88,-11.88 -2.5,-5.62 -15.63,-0.62 -21.25,2.5 -9.85,5.47 -16.96,19.11 -20,31.25 -1.71,6.83 0.92,18.57 3.17,24.99 1.86,5.32 2.6,9.13 -1.93,9.13 -5.11,0 -10.14,0.32 -15.07,0.92 -28.33,3.44 -53.16,16.2 -69.92,32.46 -41.25,40 -38.75,89.38 13.75,145.63 20.2,21.65 85,91.25 85,91.25 17.48,18.72 8.45,27.54 2.5,40"
             style="fill:#6A4726;fill-opacity:1;fill-rule:nonzero;stroke:none"
             id="path88" /><path
             d="m 2578,2348.4 c 11.56,7.41 34.21,21.66 38.12,33.13 7.3,20.55 -25.62,34.37 -8.12,46.25 6.05,4.1 10,6.25 19.37,-5.63 3.84,-4.86 29.39,-35.29 34.38,-43.12 5.17,-8.13 0.51,-16.41 -5.99,-31.95 -6.51,-15.55 -66.36,-166.62 -68.39,-172.43 -4.37,-12.5 -9.46,-28.62 -8.12,-30.62 1.25,-1.88 6.25,0 22.5,9.37 l 75.71,45.17 c 22.12,14.09 42.49,21.35 45.54,36.08 3.75,18.13 -7.5,31.88 -1.88,36.25 4.08,3.17 11.6,4.98 14.38,0.63 3.08,-4.84 31.25,-48.13 45.62,-71.25 6.82,-10.97 8.75,-16.88 -2.5,-20.63 -9.79,-3.26 -15,9.24 -26.87,11.88 -14.44,3.44 -22.53,-0.64 -43.75,-13.75 0,0 -116.59,-66.51 -163.13,-98.75 -10.43,-7.24 -16.63,-16.35 -18.12,-18.75 -8.13,-13.13 -20,-8.75 -25.76,-4.06 -5.69,4.64 -6.21,20.62 -0.49,34.06 l 81.25,204.37 c 2.5,5.67 5.55,14.13 5,15 -1.48,2.32 -5.42,4 -21.25,-9.37 0,0 -111.25,-75.63 -116.88,-88.13 -6.77,-15.06 15.1,-30.5 3.13,-38.12 -6.89,-4.39 -17.67,-4.22 -21.18,1.29 -2.96,4.64 -42.56,61.9 -45.7,66.83 -2.4,3.77 1.44,11.53 6.88,15 8.34,5.31 13.37,-12.53 28.12,-13.12 15.63,-0.63 35.27,20.14 76.25,46.25 0,0 70.32,50.71 81.88,58.12"
             style="fill:#6A4726;fill-opacity:1;fill-rule:nonzero;stroke:none"
             id="path90" /><path
             d="m 2829.87,1931.52 c 32.5,26.25 27.5,30 26.25,42.5 -1.28,12.82 -2.05,15.57 6.57,17.42 5.34,1.15 9.82,-1.62 10.93,-6.79 1.99,-9.24 28.01,-91.92 28.75,-95.63 1.88,-9.37 -0.43,-14.13 -4.49,-15.2 -11.13,-2.92 -12.38,5.2 -17.38,11.45 -6.57,8.21 -12.5,10.63 -18.13,7.5 -6.97,-3.88 -29.29,-20.28 -36.87,-25 l -113.79,-80.8 c -4.94,-3 -6.92,-5.75 -6.61,-7.22 0.4,-1.85 2.85,-3.26 7.27,-3.85 l 133.13,-25 c 13.84,-2.45 25.35,-4.65 33.75,-5 12.71,-0.54 20.23,-3.53 26.25,9.37 4.37,9.38 -2.5,20.63 12.54,21.99 5.86,0.54 8.14,-1.45 9.33,-6.99 2.15,-9.98 11.47,-75.82 12.5,-80.62 1.03,-4.81 -3.29,-7.33 -8.12,-8.75 -10.63,-3.13 -14.09,5.9 -19.38,12.5 -2.36,2.97 -9.17,14.83 -26.25,17.5 -196.25,30.62 -268.75,54.37 -268.75,54.37 -4.01,0.68 -5.86,3.47 -6.65,7.16 -0.63,2.96 -1.97,8.63 3.53,11.59 98.75,53.13 215.62,147.5 215.62,147.5"
             style="fill:#6A4726;fill-opacity:1;fill-rule:nonzero;stroke:none"
             id="path92" /><path
             d="m 2916.75,1624.65 c 11.87,13.12 -5,31.87 16.25,31.87 5.46,0 11.85,-0.99 11.87,-8.12 0.02,-3.78 8.06,-164.02 8.13,-182.5 0.05,-14.29 7.5,-25 -2.5,-31.88 -4.86,-3.34 -6.88,-6.25 -21.88,-10.62 -15,-4.38 -52.3,-13.72 -61.25,-13.75 -6.3,-0.02 -8.95,12.96 -10,18.75 -1.25,6.87 35.63,11.25 53.13,34.37 18.55,24.52 12.7,49.1 10.62,90.63 -0.62,12.5 -3.75,15.62 -10.62,15.62 l -74.38,-3.12 c -12.6,-0.05 -25.04,3.01 -25,-10 l 1.25,-21.25 c 0.06,-18.07 0.93,-26.64 11.88,-35 10.95,-7.95 39.64,-4.69 36.87,-14.38 -3.75,-13.12 -14.74,-14.35 -20.62,-14.37 -2.52,-0.01 -15,-0.63 -21.88,-0.63 -31.5,0 -48.75,1.88 -56.25,2.5 -5.44,0.46 -15,5.38 -15,10 0,10.63 5.63,10.63 16.88,13.13 18.43,4.09 16.96,14.39 16.87,38.75 l -1.25,18.75 c 1.25,9.37 -1.87,9.37 -13.12,10 l -55.99,-0.37 c -34.01,0.37 -35.26,-0.88 -35.26,-17.13 0,-28.14 0.24,-73.46 15,-90.63 10.49,-12.45 34.37,-25 46.87,-30 5.3,-2.12 8.52,-6.38 5.63,-10.62 -7.04,-10.33 -6.25,-12.5 -15.63,-11.25 -8.74,1.16 -40.07,11.39 -55.62,21.25 -25.63,16.25 -30,15 -28.13,28.12 7.82,54.73 -4.97,177.65 -5,185.63 -0.02,6.71 13.51,15.87 18.13,15.62 11.25,-0.62 9.4,-21.31 14.37,-32.5 5,-11.25 16.93,-10.07 36.25,-10 l 166.88,3.75 c 20.58,0.07 32.53,-1.64 42.5,9.38"
             style="fill:#6A4726;fill-opacity:1;fill-rule:nonzero;stroke:none"
             id="path94" /><path
             d="m 2867.79,1312.15 -170.84,35.83 c -18.98,3.59 -30.73,7.72 -31.66,21.67 -0.84,12.5 -2.17,16.53 -11.67,18.33 -4.54,0.86 -14.58,-5.9 -15.83,-12.5 -1.72,-9.08 -9.35,-63.83 -10.84,-71.67 -1.32,-7.02 -2.37,-23.8 4.17,-26.66 13.33,-5.84 15.83,3.33 19.17,17.5 3.35,14.26 15.21,12.39 36.66,8.33 l 54.17,-13.33 c 11.56,-2.19 16.67,-3.47 14.17,-16.67 -2.5,-13.21 -10.67,-25.15 -19.17,-31.67 -7.52,-5.84 -31.67,-15.83 -64.17,-32.5 -52.43,-26.88 -77.5,-45.41 -85,-71.66 -3.33,-11.67 -0.97,-21.22 7.5,-26.67 11.67,-7.5 16.05,-1.87 16.05,2.29 0,12.5 7.12,16.37 10.62,19.38 5.83,5 30.83,19.16 43.33,25 12.5,5.83 30,13.33 54.17,24.16 24.17,10.84 30.83,22.5 34.17,21.67 3.33,-0.83 3.63,-79.07 67.5,-90.83 63.33,-11.67 90.64,28.1 102.5,90.83 5.23,27.65 20.65,120.47 21.66,125.83 1.25,6.61 4.04,12.57 -7.75,15.08 -23.08,4.92 -13.21,-19.37 -28.91,-30.08 -11.36,-8.11 -19.78,-5.49 -40,-1.66 z m -67.5,-34.17 75,-16.67 c 30,-5.83 28.33,-10 21.66,-37.5 -10.08,-41.63 -29.16,-68.33 -70.83,-55.83 -36.6,10.98 -50,56.67 -47.5,89.17 2.3,29.92 5.31,24.65 21.67,20.83"
             style="fill:#6A4726;fill-opacity:1;fill-rule:nonzero;stroke:none"
             id="path96" /><path
             d="m 2644.45,1074.65 c 4.72,-0.84 12.96,-5.66 13.34,-5.84 5.69,-2.69 6.39,-6.04 3.33,-12.5 -3.59,-7.59 -9.94,-2.23 -40,-5.83 -20.83,-2.5 -48.33,-21.67 -58.33,-40 -15.29,-28.019 -10.57,-62.23 10,-72.5 29.31,-14.628 50.83,-15 78.33,22.5 33.52,45.7 68.33,89.17 132.06,58.27 38.18,-18.5 64.61,-75.77 38.67,-127.109 -14.58,-28.871 -33.39,-37.172 -39.86,-50.84 -4.31,-9.102 12.46,-5.321 6.63,-16.992 -2.63,-5.258 -15.14,-6.86 -20.83,-4.161 -4.18,1.973 -10.6,1.782 -15.84,3.332 -22.5,6.668 -40.04,12.04 -53.33,18.329 -5.69,2.703 -2.68,8.171 -0.52,12.722 5.21,11.008 9.67,3.328 41.35,6.449 27.93,3.04 46.19,20.25 57.5,44.168 11.86,25.051 -0.33,61.122 -20.83,70.832 -23.53,11.141 -52.33,5.141 -77.5,-28.832 -20,-27 -47.74,-56.296 -67.5,-63.668 -21.43,-7.98 -42.46,-7.359 -66.29,5.071 -44.54,23.258 -54.86,87.551 -32.04,135.759 6.88,14.54 30,35 46.66,42.5 5.38,2.42 -3.47,9.34 -9.16,11.67 -3.27,1.34 2.5,21.67 25,15.83 l 49.16,-19.16"
             style="fill:#6A4726;fill-opacity:1;fill-rule:nonzero;stroke:none"
             id="path98" /><path
             d="m 2699.87,740.27 c 17.88,1.992 18.75,21.25 34.38,11.878 7.91,-4.75 5.62,-8.75 -2.5,-21.878 -1.79,-2.891 -45.66,-65.36 -47.11,-67.571 -4.96,-7.551 -5.79,-9.359 -15.39,-3.051 -9.13,5.993 3.12,15.614 3.12,28.75 0,5.622 -6.25,11.872 -13.12,16.872 l -165,111.25 c -20,16.25 -26.03,18.289 -37.5,10 -10.5,-7.571 -15,-18.75 -26.25,-9.372 -7.2,6 -11.25,6.25 -1.88,18.122 7.03,8.902 49.85,70.57 55.25,78.781 3.32,5.051 13.22,1.808 16.63,-0.653 11.25,-8.128 -8.13,-23.75 -5.63,-33.75 2.36,-9.437 6.25,-11.878 20.63,-21.25 L 2686.12,745.27 c 0,0 8.13,-5.622 13.75,-5"
             style="fill:#6A4726;fill-opacity:1;fill-rule:nonzero;stroke:none"
             id="path100" /><path
             d="m 2588,584.648 c 18.22,20.661 18.68,28.543 13.12,48.75 -6.87,25 -16.04,34.313 -9.37,41.872 2.44,2.769 16.87,11.878 23.12,1.25 1.92,-3.258 8.75,-15.622 24,-43.481 6.46,-11.801 12.88,-17.141 1.63,-30.269 -5.9,-6.891 -10.53,-10.579 -28.75,-31.25 l -55,-61.25 c -19.11,-21.668 -32.74,-33.52 -39.85,-41.59 -6.22,-7.059 -13.28,-16.532 -24.53,-6.532 0,0 -17.5,23.122 -21.25,30 -3.6,6.602 -10.62,16.25 -13.75,22.5 -3.57,7.133 2.66,10.082 6.25,13.122 8.13,6.878 14.38,-1.872 26.88,-11.872 13.82,-11.058 25,-10 38.29,5.012 0.67,0.75 1.11,1.262 1.78,2.012 14.22,16.129 12.86,16.168 -1.95,29.226 l -140.62,125 c -16.38,14.442 -22.5,26.25 -39.98,16.59 -9.78,-5.398 -14.33,-15.617 -23.15,-7.84 -4.41,3.883 -6.9,15.711 -3.12,20 5.55,6.293 56.01,62.551 63.12,70.622 4,4.539 15.6,2.71 19.38,-0.622 8.39,-7.398 -4.31,-19.726 -5.08,-22.878 -3.63,-14.282 4.64,-24.211 20.7,-38.372 L 2560.84,585.82 c 13.23,-11.66 14.05,-16.039 27.16,-1.172"
             style="fill:#6A4726;fill-opacity:1;fill-rule:nonzero;stroke:none"
             id="path102" /><path
             d="m 2275.5,516.52 c 6.6,-8.7 13.36,-10.258 18.75,-12.5 l 117.5,-43.75 c 14.66,-6.84 26.87,-10 38.12,-11.872 10.39,-1.738 23.13,11.25 33.75,2.5 6.49,-5.347 3.75,-10 -4.37,-17.5 -2.78,-2.566 -7.18,-5.187 -29.38,-28.128 -18.75,-19.372 -25.69,-27.211 -29.37,-30 -5.69,-4.321 -16.64,-5.18 -19.95,0.171 -8.8,14.207 17.23,19.868 6.82,33.579 -2.28,3.011 -9.24,5.718 -17.15,9.199 l -108.47,43.301 c -2.53,1.25 -8.63,0.941 -9.64,0.179 -1.67,-1.269 -1.99,-3.617 -1.38,-7.898 l 5.39,-83.531 c 1.48,-8.899 1.81,-15.879 3.13,-23.75 1.87,-11.25 0,-14.372 14.37,-23.75 11.27,-7.34 16.25,10 27.5,-3.122 3.28,-3.828 -0.9,-12.187 -6.25,-16.25 -3.68,-2.796 -15.62,-10.628 -35.62,-23.75 -11.94,-7.839 -22.64,-13.789 -30,-19.378 -5.69,-4.321 -10.29,-2.879 -13.6,1.468 -5.08,6.692 -8.28,11.66 2.35,20.41 6.26,5.153 16.07,20.973 13.61,38.102 l -9.86,128.77 c -1.23,8.562 -1.25,28.128 -3.75,31.878 -5.97,8.942 -15,22.5 -25.63,37.5 -14.32,20.223 -18.67,31.473 -34.37,30.622 -15.45,-1.18 -30.12,-15.122 -38.75,-3.75 -3.56,4.679 -2.66,9.062 3.03,13.378 8.81,6.692 74.36,57.532 85.39,65.911 6.02,4.57 11.46,3.941 14.7,0.089 10,-11.878 -3.12,-17.5 -10.62,-28.75 -9.8,-14.699 -0.01,-25.168 14.47,-44.226 3.3,-4.352 6.86,-9.043 10.92,-14.391 l 18.36,-20.761"
             style="fill:#6A4726;fill-opacity:1;fill-rule:nonzero;stroke:none"
             id="path104" /><path
             d="m 1187.37,250.898 c 2.7,13.082 0.43,22.09 -8.75,17.5 -7.5,-3.75 -9.9,-6.546 -14.37,-5.628 -2.98,0.621 -7.5,5.628 -6.88,8.75 1.91,9.558 24.89,26.449 63.13,48.75 7.5,4.378 13.27,3.55 19.23,2.32 1.86,-0.391 2.91,-2.809 2.11,-6.699 -0.51,-2.481 -6.23,-22.891 -10.72,-36.871 l -30.33,-148.918 c -4.67,-22.633 -5.92,-30.4536 15.96,-37.9536 5.39,-1.8476 6.24,-4.6172 5,-10.6289 -0.95,-4.5898 -13.93,-6.3789 -20.63,-5 -7.81,1.6094 -12.86,1.1289 -43.75,7.5 -26.05,5.3789 -26.25,9.3789 -30,13.1289 -1.61,1.6133 -4.71,7.3906 -3.75,11.2496 1.25,5 2.42,0.582 19.38,1.872 13.75,0.851 16.32,4.769 20.62,25.628 l 23.75,115"
             style="fill:#6A4726;fill-opacity:1;fill-rule:nonzero;stroke:none"
             id="path106" /><path
             d="m 1418.62,200.27 c 3.13,46.25 -6.6,82.5 -38.12,82.5 -30,0 -46.88,-28.122 -50,-68.75 -2.9,-37.719 17.5,-69.372 48.75,-73.122 5.86,-0.707 4.31,-1.25 8.75,-1.25 0,0 6.87,-7.5 11.38,-16.878 -15.13,-5 -27.92,-3.5 -45.13,-1.25 -38.13,5 -71.88,41.25 -68.75,88.75 3.95,60.062 54.32,94.8 89.37,93.128 65.63,-3.128 93.81,-43.039 89.38,-114.378 C 1460.54,129.359 1430.94,76.4492 1386.71,38.3398 1373,26.5195 1350.5,10.8984 1319.25,0.269531 c -5.29,-1.800781 -18.32,5.499999 -5,14.378869 45,30 77.5,79.3711 88.12,108.1216 7.47,20.218 13.13,31.25 16.25,77.5"
             style="fill:#6A4726;fill-opacity:1;fill-rule:nonzero;stroke:none"
             id="path108" /><path
             d="m 1565.12,202.52 c 9.13,43.128 16.63,55.25 36,87.75 13.16,22.082 31.25,30.011 31.25,38.75 0,8.75 -8.12,6.878 -14.37,5 -9.66,-2.891 -38.75,-28.122 -51.88,-45.622 -38.44,-51.257 -51.87,-101.25 -50,-133.128 3.9,-66.2388 50,-112.5005 96.25,-108.7505 53.03,4.3008 81.88,44.3789 82.5,87.5005 0.61,41.839 -25.45,71.91 -56.25,78.75 -16.24,3.609 -36.28,7.8 -70.32,-9.219 1.57,-5.153 13.58,-12.903 13.58,-12.903 2.12,1.25 8.43,3.661 17.99,4.622 30.63,3.062 46.67,-15.68 50.63,-61.872 1.87,-21.878 -10.63,-63.7496 -38.13,-62.4996 -29.61,1.3399 -45,28.75 -50,70.6216 -2.48,20.82 0.63,50 1.75,55.75 l 1,5.25"
             style="fill:#6A4726;fill-opacity:1;fill-rule:nonzero;stroke:none"
             id="path110" /><path
             d="m 1864.25,54.0195 c 6.87,0 14.66,17.9688 22.24,27.1289 2.51,3.7422 7.96,11 10.88,12.8711 3.76,2.4102 1.25,5 -0.62,11.8785 -3.33,12.192 -10,33.75 -11.25,39.372 -1.25,5.628 -1.06,9.269 -1.25,10 -0.69,2.57 3.28,4.519 6.96,5.5 l 22.41,5.75 c 9.55,2.539 8.12,8.289 9.38,16.878 0.67,4.891 2.5,16.872 3.12,24.372 0.63,7.5 -12.33,6.949 -14.37,3.75 -10,-15.622 -17.03,-23.051 -24.38,-25 0,0 -3.75,-2.5 -8.75,0 -5,2.5 -5.94,17.019 -6.91,20.699 -0.2,0.73 -0.29,1.101 -0.49,1.84 l -32.6,132.461 c -2.24,8.449 -8.12,24.378 -15.62,22.5 -20.24,-5.059 -30.55,-52.711 -61.25,-123.75 -25.35,-58.61 -40.38,-89.282 -36.88,-102.5 1.85,-6.981 16.81,-11.09 25.63,-8.75 l 88.75,20.628 c 5.88,1.551 8.44,-1.617 10,-7.5 0,0 6.25,-34.378 7.5,-46.2496 1.25,-11.8789 -6.18,-28.8672 -6.88,-33.75 -0.62,-4.3789 2.5,-6.25 5,-7.5 2.02,-1.0078 6.25,-1.8789 9.38,-0.6289 z m -95.63,103.1285 c -4.41,-1.168 -15,-3.75 -9.37,8.75 2.65,5.891 7.32,21.512 15.62,40.622 l 14.38,35 c 12.77,28.941 18.67,46.82 21.25,47.5 1.83,0.492 2.3,-3.461 2.79,-5.301 0.2,-0.731 0.29,-1.098 0.49,-1.828 l 21.09,-86.621 c 6.25,-22.5 2.8,-21.43 -1.25,-22.5 l -65,-15.622"
             style="fill:#6A4726;fill-opacity:1;fill-rule:nonzero;stroke:none"
             id="path112" /><path
             d="m 1099.36,2909.74 c -27.17,-4.59 -31.65,-12.72 -38.65,-32.49 -8.65,-24.44 -7.3,-42.71 -17.09,-45.1 -3.59,-0.88 -20.63,-0.09 -19.68,12.2 0.29,3.77 2.59,23.2 6.01,54.77 1.45,13.38 2.56,29.65 20.55,27.41 10,-1.25 21.25,4.37 36.88,7.56 l 114.37,24.94 c 20.62,3.75 31.98,6.33 40,10 8.55,3.91 17.11,6.51 20.62,-8.13 0,0 -0.06,-34.64 -0.91,-42.43 -0.83,-7.48 -0.58,-19.4 -1.59,-26.32 -1.15,-7.9 -7.95,-6.75 -12.63,-7.19 -10.6,-1 -10.72,9.75 -15.26,25.11 -5.02,16.97 -10.23,28.33 -47.6,18.11 -0.98,-0.27 -1.63,-0.44 -2.62,-0.64 -14.39,-2.89 -16.57,-4.33 -11.89,-23.51 l 42.5,-183.75 c 5.18,-21.22 8.13,-38.75 17.16,-40.7 10.91,-2.36 20.68,4.62 23.47,-6.8 1.39,-5.72 -6.96,-14.9 -12.5,-16.25 -8.16,-2 -73.31,-16.83 -83.75,-19.38 -5.88,-1.44 -14.81,5.73 -16.01,10.62 -2.65,10.87 15.49,13.8 18.51,15.01 12.5,5 8.78,23.36 3.7,44.18 l -45.58,184.57 c -4.18,17.13 -3.75,20.62 -18.01,18.21"
             style="fill:#6A4726;fill-opacity:1;fill-rule:nonzero;stroke:none"
             id="path114" /><path
             d="m 2803,2083.4 c 8.16,16.03 -8.81,30.32 7.61,38.22 8.31,4.01 10.4,-0.1 16.9,-14.1 1.44,-3.09 29.53,-74.06 30.58,-76.49 3.59,-8.29 4.64,-9.98 -5.9,-14.53 -10.02,-4.34 -10.72,7.18 -21.69,14.4 -4.7,3.09 -13.36,1.3 -21.32,-1.7 l -184.21,-72.76 c -24.56,-7.79 -29.57,-11.7 -28.95,-25.84 0.55,-12.94 9.12,-26.08 -4.9,-30.33 -8.97,-2.72 -13.09,-2.72 -17.86,11.63 -3.58,10.76 -31.58,80.42 -35.49,89.45 -2.39,5.55 5.77,12.04 9.69,13.54 12.96,4.93 14.84,-21.15 24.58,-24.56 9.18,-3.2 13.35,-1.29 29.08,5.57 l 190.14,78.76 c 0,0 9.17,3.7 11.74,8.74"
             style="fill:#6A4726;fill-opacity:1;fill-rule:nonzero;stroke:none"
             id="path116" /><path
             d="m 855.492,2601.53 c -3.008,3.73 -6.082,13.99 -6.25,14.37 -2.523,5.77 2.832,5.89 9.375,8.75 7.695,3.37 9.969,-6.73 35,-23.75 17.356,-11.79 54.836,-14.18 75,-8.75 32.503,8.75 65.003,40 51.883,75 -11.51,30.67 -30.633,34.38 -88.133,22.5 -67.16,-13.87 -120.625,-18.12 -144.375,43.75 -15.199,39.6 7.594,101.06 60.871,122.74 29.949,12.2 47.254,9.14 62.879,12.89 9.801,2.35 -4.238,6.63 7.824,11.6 5.434,2.25 14.278,-2.49 18.426,-7.23 4.375,-5 10.196,-11.01 13.125,-15.62 12.594,-19.81 23.485,-31.54 29.375,-45 2.528,-5.78 -7.879,-12.36 -12.5,-14.38 -11.156,-4.88 -10.926,10.93 -36.875,29.38 -23.058,16.04 -49.504,13.73 -73.75,3.12 -25.394,-11.11 -39.226,-52.76 -30.625,-73.75 15.625,-38.12 38.719,-39.1 80,-30 32.813,7.23 51.875,18.13 88.75,14.38 13.738,-1.4 47.118,-11.07 61.258,-42.5 30.62,-68.13 -28.75,-113.75 -64.383,-128.13 -19.437,-7.84 -50,-8.12 -68.75,-7.5 -5.887,0.2 -7.758,-6.38 -5,-11.87 1.59,-3.16 -13.109,-22.93 -26.25,-3.75 l -36.875,53.75"
             style="fill:#6A4726;fill-opacity:1;fill-rule:nonzero;stroke:none"
             id="path118" /><path
             d="m 1881.75,2894.03 c -13.54,11.4 -32.72,6.51 -24.86,26.26 2.02,5.07 5.3,10.64 11.94,8.03 3.52,-1.39 162.6,-60.02 179.79,-66.79 13.29,-5.24 20.53,0.46 23.22,-11.38 1.31,-5.74 3.27,-8.69 1.78,-24.25 -1.48,-15.56 -2.34,-39.8 -5.62,-48.12 -2.31,-5.86 -15.36,-3.52 -21.12,-2.36 -6.85,1.38 2.38,25.04 -12.63,49.86 -15.92,26.31 -38.15,28.44 -77.5,41.87 -11.85,4.05 -15.19,4.83 -17.74,-1.55 l -24.6,-70.26 c -4.62,-11.72 -12.07,-22.15 0.04,-26.93 l 20.21,-6.69 c 16.8,-6.63 25.15,-11.84 36.97,-4.76 11.43,7.23 19.01,35.1 26.99,28.94 10.81,-8.34 7.89,-19.01 5.73,-24.48 -0.92,-2.35 -4.97,-14.17 -7.51,-20.55 -11.65,-29.27 -17.36,-46.35 -20.72,-53.09 -2.43,-4.89 -10,-11.88 -17.24,-8.49 -14.32,6.7 -7.8,9.16 -5.96,20.53 3.01,18.64 -7.15,23.93 -29.82,32.86 l -17.88,5.78 c -8.25,4.63 -9.4,1.72 -14.15,-8.5 l -20.36,-52.16 c -12.92,-31.46 -12.22,-33.08 2.87,-39.09 26.15,-10.41 73.65,-30.07 95.06,-22.71 15.44,5.14 35.94,22.7 45.21,32.46 3.92,4.13 3.77,8.68 6.64,4.42 6.99,-10.36 12.76,-16.06 10.01,-25.1 -3.1,-10.18 -25.44,-29.73 -40.34,-40.53 -24.58,-17.79 -25.04,-22.32 -36.54,-15.72 -47.96,27.5 -172.19,64.2 -179.62,67.13 -6.25,2.46 -9.75,18.43 -7.81,22.62 4.74,10.22 23.28,0.85 35.51,1.33 12.3,0.49 15.61,12.01 22.7,29.98 l 56.72,161.44 c 7.55,19.14 12.5,30 0.63,40"
             style="fill:#6A4726;fill-opacity:1;fill-rule:nonzero;stroke:none"
             id="path120" /><path
             d="m 63.6172,1211.52 c -10.2031,-14.46 9.6953,-28.24 -11.3984,-30.81 -5.4219,-0.65 -11.8868,-0.45 -12.7696,6.64 -0.4687,3.75 -27.789,161.85 -30.08201,180.19 -1.76953,14.17 -13.17578,24.85 -4.07813,32.88 4.42188,3.9 6.07424,7.03 20.43364,13.19 14.3671,6.15 46.5156,19.93 55.3945,21.04 6.25,0.78 7.6328,-12.51 9.375,-18.13 2.0703,-6.67 -32.4024,-20.7 -43.125,-35 -13.125,-17.5 -2.875,-56.03 4.1953,-97 2.1289,-12.33 5.6094,-15.06 12.4375,-14.23 l 73.453,12.07 c 12.504,1.57 30.555,2.77 28.938,15.69 l -3.801,20.94 c -2.242,17.93 -5.215,29.3 -17.098,36.28 -11.824,6.56 -42.5,-5.62 -40,6.88 2.676,13.38 15.418,19.27 21.25,20 2.5,0.31 15.051,2.29 21.875,3.12 31.27,3.8 49.356,4.72 56.875,5 14.371,0.54 21.746,-2.34 23.75,-14.37 1.75,-10.48 -14.129,-8.04 -25,-11.88 -17.797,-6.29 -17.394,-17.7 -14.375,-41.87 l 4.375,-19.38 c -0.109,-9.46 4.383,-8.86 15.625,-8.12 l 51.688,5.68 c 33.808,3.74 34.902,5.13 32.937,21.26 -3.394,27.94 -9.762,84.66 -26.48,99.92 -11.918,11.09 -37.137,20.67 -50.157,24.13 -5.507,1.46 -9.226,5.3 -6.859,9.87 5.742,11.1 4.692,13.16 14.152,13.05 8.817,-0.11 41.161,-6.48 57.782,-14.39 27.398,-13.03 31.593,-11.27 31.312,-24.52 -1.156,-55.28 31.367,-193.76 32.36,-201.68 0.832,-6.67 -11.5,-17.4 -16.11,-17.7 -11.242,-0.74 -16.242,26.27 -22.531,36.78 -6.32,10.56 -18.023,7.95 -37.195,5.55 l -167.774,-26.7 c -20.4178,-2.56 -30.8045,-2.24 -39.3748,-14.38"
             style="fill:#6A4726;fill-opacity:1;fill-rule:nonzero;stroke:none"
             id="path122" /><path
             d="m 326.117,652.148 c -2.316,-17.546 24.375,-41.25 8.125,-48.128 -5.027,-2.129 -6.551,-3.989 -10.625,1.878 -2.156,3.102 -104.32,140.18 -114.867,155.364 -8.152,11.718 -14.508,18.386 -12.008,30.886 1.16,5.782 1.875,10 7.93,17.934 9.484,12.418 35.254,40.996 42.605,46.098 5.176,3.601 16.567,-2.989 20.715,-7.16 4.934,-4.95 -25.613,-32.36 -28.125,-61.25 -1.25,-14.372 14.082,-38.872 39.375,-71.872 7.613,-9.937 13.719,-17.66 19.375,-13.75 l 63.121,43.172 c 10.348,7.2 21.465,19.692 14.035,30.379 l -13.097,16.781 c -10.309,14.829 -15.895,21.391 -29.653,22.059 -13.519,0.32 -34.406,-20.519 -40.656,-10.519 -7.234,11.582 3.297,22.269 8.125,25.628 2.07,1.43 14.344,12.34 20,16.25 25.93,17.891 41.598,25.633 48.125,29.372 4.738,2.718 13.125,6.25 18.125,0 8.602,-10.75 1.375,-15.122 -6.465,-23.559 -12.839,-13.84 -5.785,-21.481 8.118,-41.481 l 11.679,-14.718 c 4.297,-8.43 7.731,-14.602 17.344,-8.731 l 45.867,32.11 c 28.211,19.007 27.668,28.691 18.434,42.058 -15.981,23.16 -37.477,64.949 -64.352,70.571 -15.929,3.339 -41.953,-3.438 -55.082,-6.418 -5.562,-1.27 -13.992,2.769 -15.543,7.668 -3.75,11.878 -2.801,14.449 5.625,18.75 7.86,4.011 44.735,15.539 63.125,16.25 30.32,1.179 37.188,3.652 41.875,-8.75 21.25,-56.25 93.571,-144.071 98.125,-150.622 3.836,-5.519 6.25,-11.25 3.125,-13.75 -8.797,-7.039 -14.551,-5.769 -25,0.622 -10.508,6.421 -24.133,-3.348 -40,-14.372 L 358.398,683.031 C 341.5,671.289 328.066,666.879 326.117,652.148"
             style="fill:#6A4726;fill-opacity:1;fill-rule:nonzero;stroke:none"
             id="path124" /><path
             d="m 194.242,914.02 c -28.488,-30.551 -18.75,-38.122 -16.25,-53.75 1.906,-11.918 1.403,-16.329 -6.875,-19.372 -5.121,-1.886 -11.515,12.352 -13.347,17.321 -3.262,8.871 -43.34,93.429 -44.594,96.992 -3.176,9.019 -1.555,14.059 2.316,15.687 10.606,4.454 13.133,-5.168 18.75,-11.25 7.5,-8.128 16.633,-12.769 21.766,-8.886 6.359,4.82 26.156,24.187 32.996,29.929 l 101.308,95.989 c 4.473,3.65 10.704,9.05 10.18,10.47 -0.652,1.77 -8.035,4.4 -12.5,4.37 0,0 -160.449,8.97 -168.808,8.15 -12.664,-1.26 -20.5199,0.64 -24.6723,-12.98 -3.0156,-9.89 4.8594,-25.92 -9.8437,-29.38 -5.7227,-1.35 -8.2657,0.29 -10.2188,5.61 -3.5273,9.58 -22.0039,73.45 -23.7031,78.07 -1.6914,4.61 2.6562,10.95 7.2461,13.03 10.0859,4.59 11.9687,-7.33 18.125,-13.12 2.75,-2.62 14.5898,-11.01 31.8748,-11.25 198.606,-2.76 272.676,-18.25 272.676,-18.25 4.074,-0.11 8.523,-3.2 9.824,-6.75 1.047,-2.84 5.035,-8.17 0,-11.88 -90.312,-66.46 -196.25,-178.75 -196.25,-178.75"
             style="fill:#6A4726;fill-opacity:1;fill-rule:nonzero;stroke:none"
             id="path126" /><path
             d="m 222.953,2115.41 c -11.875,6.9 -34.894,20.54 -46.883,18.78 -21.621,-2.9 -18.871,-38.5 -37.433,-28.36 -6.41,3.5 -10.125,6.04 -3.848,19.8 2.574,5.64 21.016,49.75 25.703,57.77 4.863,8.31 15.696,3.68 32.5,5 16.809,1.32 173.903,9.78 180,10.63 13.117,1.81 31.328,2.89 32.5,5 1.102,1.96 -6.738,9.83 -22.5,20 l -73.125,46.25 c -22.644,13.23 -43.125,29.37 -51.976,26.08 -17.344,-6.46 -19.039,-14.36 -26.149,-14.83 -9.375,-0.63 -12.605,4.29 -10,8.75 2.899,4.95 29.899,49.84 45,72.5 3.75,5.62 4.649,9.54 13.125,1.25 7.379,-7.22 -0.453,-4.82 1.875,-28.13 1.25,-12.5 13.75,-21.87 30.625,-33.12 16.875,-11.25 111.305,-75.84 161.25,-102.5 11.203,-5.98 20.934,-8.53 23.75,-8.75 15.387,-1.23 14.699,-16.62 9.375,-23.13 -5.625,-6.87 -9.812,-8.33 -24.375,-9.37 L 269.055,2143.3 c -6.192,-0.37 -8.664,-0.89 -9.188,-1.77 -1.39,-2.38 -3.5,-5.15 15.625,-13.13 0,0 116.309,-70.71 130,-70 16.5,0.85 14,19.04 26.25,11.88 7.051,-4.13 10.176,-11.23 6.875,-16.88 -2.777,-4.75 -23.301,-44.95 -26.25,-50 -2.254,-3.86 -10.918,-4 -16.484,-0.74 -8.539,4.99 -0.391,12.62 -3.516,17.62 -8.285,13.26 -38.359,24.33 -80.305,48.85 0,0 -77.238,39.38 -89.109,46.28"
             style="fill:#6A4726;fill-opacity:1;fill-rule:nonzero;stroke:none"
             id="path128" /><path
             d="m 502.992,459.02 c 1.305,-20.961 23.125,-29.372 10,-39.372 -9.281,-7.07 -15.051,2.883 -20.199,8.071 -5.75,5.801 -60.863,59.832 -64.801,63.801 -3.633,3.66 -16.121,15.082 -12.5,18.75 10.555,10.691 22.285,-3.7 36.875,-4.372 15.504,-0.976 21.121,11.481 35.168,25.403 l 134.903,137.687 c 6.14,5.692 8.265,9.301 0.554,16.91 -10.691,10.551 -17.547,19.274 -27.629,29.223 -21.386,21.109 -41.933,19.238 -56.457,15.391 -34.594,-9.192 -38.968,-18.953 -46.902,-5.282 -5.91,10.18 -11.512,15.04 9.113,24.418 13.926,6.321 31.25,13.75 49.375,20.622 17.512,6.64 32.613,9.039 39.227,-2.36 16.332,-28.148 121.679,-123.308 127.648,-128.89 9.375,-8.75 3.985,-16.668 0.625,-20 -7.019,-6.961 -24.375,11.25 -36.875,15 -8.406,2.531 -17.078,4.558 -31.125,-9.372 L 526.191,498.281 C 511.227,483.449 502.555,466.078 502.992,459.02"
             style="fill:#6A4726;fill-opacity:1;fill-rule:nonzero;stroke:none"
             id="path130" /><path
             d="m 1315.42,2755.64 c -5.5,-15.73 -13.05,-50.99 -21.17,-62.24 -5.59,-7.74 -20.72,-9.75 -20,-18.75 0.89,-11.08 14.6,-9.25 20,-8.75 16.09,1.5 35.38,4.78 48.75,6.25 8.45,0.93 16.34,5.63 16.17,11.69 -0.2,6.87 -1.03,10.73 -10.55,10.19 -21.87,-1.25 -15.58,16.4 -12.5,28.75 1.04,4.17 5.75,21.84 7.5,27.5 0,0 3.13,19.37 18.75,19.37 0,0 90.09,3.71 91.25,3.75 15.48,0.5 16.39,-5.89 23.54,-23.3 0,0 8.42,-22.53 10.4,-27.3 9.77,-23.38 -2.12,-22.73 -10.67,-24.27 -5.78,-1.05 -8.16,-1.81 -6.44,-10 2.63,-12.48 3.28,-10.33 13.03,-10.73 9.74,-0.41 56.34,-1.37 66.39,-1.9 11.88,-0.62 30.63,-0.62 30,11.25 -0.66,12.48 -23.12,5 -30,24.38 -5.08,14.33 -19.74,45.37 -25.62,59.37 0,0 -90.44,204.12 -93.75,211.81 -2.33,5.41 -8.06,22.61 -20.75,20.07 -7.29,-1.46 -28.63,-30.63 -36.13,-36.25 0,0 -52.7,-195.15 -58.2,-210.89 z m 52.2,41.63 c -6.86,-0.42 -8.7,3.23 -5.87,13.01 6.87,23.75 20.75,64.35 28.75,88.75 7.35,22.41 9.09,37.97 25.62,-3.13 10.62,-26.38 29.94,-70.66 36.25,-84.37 2.81,-6.11 3.27,-10.33 -4.38,-11.01 -10.27,-0.91 -80.37,-3.25 -80.37,-3.25"
             style="fill:#6A4726;fill-opacity:1;fill-rule:nonzero;stroke:none"
             id="path132" /><path
             d="m 1656.12,2942.15 c -26.94,5.76 -32.89,1.9 -48.12,-12.5 -23.13,-21.87 -16.25,-43.12 -31.35,-36.9 -3.42,1.41 -15.32,9.57 -9.9,20.65 1.66,3.4 3.92,20.05 18.75,48.13 6.28,11.9 7.23,25.59 23.12,16.87 8.84,-4.85 21.37,-3.77 37.07,-6.57 l 124.22,-22.8 c 20.55,-4.12 32.06,-5.91 40.87,-5.46 9.39,0.48 18.31,-0.26 16.17,-15.16 0,0 -12.83,-32.18 -16.5,-39.1 -3.52,-6.65 -8.78,-17.32 -11.18,-23.88 -4.4,-12.03 -16.13,-7.1 -20.65,-5.78 -10.21,2.98 -0.74,18.65 0.71,34.59 1.6,17.64 1.56,28.24 -36.95,32.53 -1,0.11 -1.67,0.19 -2.66,0.37 -14.44,2.61 -16.49,5.4 -19.21,-14.15 l -28.27,-186.47 c -3.02,-21.63 -5.81,-40.85 -2.99,-44.37 7.5,-9.37 21.25,-4.37 17.5,-17.5 -1.72,-6.01 -9.45,-10.03 -15.11,-9.24 -8.32,1.16 -66.12,13.38 -76.77,14.87 -5.99,0.83 -9.02,8.09 -9.37,13.12 -0.63,8.75 13,6.87 16.25,6.88 13.46,0.04 16.68,20.87 19.63,42.08 l 25.72,188.37 c 2.43,17.48 3.17,18.4 -10.98,21.42"
             style="fill:#6A4726;fill-opacity:1;fill-rule:nonzero;stroke:none"
             id="path134" /><path
             d="m 1050.21,1828.86 c 6,-20 -2.01,-37.01 -4,-56.01 -5,7.01 -4,20 -10,28 0,13.01 7.99,23.01 11,35 4,0 1.99,-5 3,-6.99"
             style="fill:#6A4726;fill-opacity:1;fill-rule:nonzero;stroke:none"
             id="path136" /><path
             d="m 1079.2,1771.85 c 3.01,-10 1.01,-21.99 8.01,-30 15,-41.99 6.99,-88 -16,-124 0,-6 -5,-7 -6,-11 -4,-8 -5,-18 -5,-26 -6.01,1 -6.01,10 -7.01,16 10,35 -9,69 -1.99,105 -2.01,24 7.99,46 5,72.01 1,10 1,18.99 5,26.99 9,-8 10,-20 17.99,-29"
             style="fill:#6A4726;fill-opacity:1;fill-rule:nonzero;stroke:none"
             id="path138" /><path
             d="m 1028.2,1783.86 c -1.99,-23.01 20,-40 12.01,-64 -6.01,10 -15,19 -17.01,30.99 -5,11 -5.99,27 5,33.01"
             style="fill:#6A4726;fill-opacity:1;fill-rule:nonzero;stroke:none"
             id="path140" /><path
             d="m 1017.21,1733.86 c 3,-12.01 10,-24 15,-35 3,-7.01 5,-14 5.99,-21.01 -0.99,-7 3.01,-14 2.01,-20 l -4,0 c -27.01,19 -30,53 -28.01,82.01 l 4.01,5.99 c 4,-0.99 1.99,-8 5,-11.99"
             style="fill:#6A4726;fill-opacity:1;fill-rule:nonzero;stroke:none"
             id="path142" /><path
             d="m 1199.2,1681.85 c -6,-8 -16,-15 -23.99,-21.99 -3,-2.01 -5,0.99 -6.01,3.99 2.01,5 5,10 10,13 6.01,0 14,1 20,5"
             style="fill:#6A4726;fill-opacity:1;fill-rule:nonzero;stroke:none"
             id="path144" /><path
             d="m 1040.21,1630.85 c 8.99,-12 7.99,-29 5,-43 0,13 -18,22.01 -19,37.01 -9,13.99 -11,30.99 -19,45.99 l 1.99,2 c 0,0 -1,0 -1.99,0 l 0,7.01 c 9,-16.01 18,-36.01 33,-49.01"
             style="fill:#6A4726;fill-opacity:1;fill-rule:nonzero;stroke:none"
             id="path146" /><path
             d="m 1162.21,1671.85 c -3.01,-5 -2,-11 -5,-16 -6,-8 -12,-15 -22,-15.99 -3,10 2.99,17.99 7.99,23.99 4.01,5 12.01,12 19.01,8"
             style="fill:#6A4726;fill-opacity:1;fill-rule:nonzero;stroke:none"
             id="path148" /><path
             d="m 927.203,1648.85 c -6,-1 -15,0 -18.004,6.01 -0.996,5.99 -4,11.99 -5.996,17.99 8,-7 18,-14 24,-24"
             style="fill:#6A4726;fill-opacity:1;fill-rule:nonzero;stroke:none"
             id="path150" /><path
             d="m 963.199,1663.85 c 12,2 19.004,-8.99 30,-11 23.011,-16 26.001,-45 40.001,-67 3.01,-3 6,-4 11,-3 -5,0 -10,-4 -15,-1 -21.99,16 -39.001,35 -62.997,48.01 -14,13.99 -31.004,26.99 -45,38.99 l 1,3 c 14,-3 30,3.01 40.996,-8"
             style="fill:#6A4726;fill-opacity:1;fill-rule:nonzero;stroke:none"
             id="path152" /><path
             d="m 1120.21,1650.85 c 0,-10 2,-19 -4,-27 -6,-3 -11,-13.99 -19,-13.99 -2,6.99 1.99,16.99 -4.01,22.99 l 4.01,0 c 5,12.01 10,30 26.99,31 0,-3.99 -3.99,-8 -3.99,-13"
             style="fill:#6A4726;fill-opacity:1;fill-rule:nonzero;stroke:none"
             id="path154" /><path
             d="m 1189.2,1648.85 c 0,-12 -6.99,-23 -16,-31 -9,-32 -45.99,-35 -71.99,-42.99 -9,-2.01 -17.01,-1.01 -25,-1.01 25,20 45,46.01 75,59 15,9 29,19 41.99,30 5,-2.99 -1.99,-10 -4,-14"
             style="fill:#6A4726;fill-opacity:1;fill-rule:nonzero;stroke:none"
             id="path156" /><path
             d="m 957.203,1623.85 c -13.004,-5 -30,-2 -38.004,7 l 0,5 c 14,-0.99 30,3 38.004,-12"
             style="fill:#6A4726;fill-opacity:1;fill-rule:nonzero;stroke:none"
             id="path158" /><path
             d="m 1086.21,1621.85 c 0,-11 4,-25 -9,-33 l -5,-1 c 0,12.01 8,23 11.99,35 l 2.01,-1"
             style="fill:#6A4726;fill-opacity:1;fill-rule:nonzero;stroke:none"
             id="path160" /><path
             d="m 989.199,1600.85 c -17.996,1 -41.996,-22 -54,3 l 0,4 c 17.004,-2.99 39,14 54,-7"
             style="fill:#6A4726;fill-opacity:1;fill-rule:nonzero;stroke:none"
             id="path162" /><path
             d="m 1041.21,1567.85 c -13.01,-14 -31,-24 -47.011,-34 -22.996,-25 -54,-38.99 -76.996,-63 0,1 -1,1 -1,2 2,19 17.996,32.01 21,50 10.996,9 14,24 27.996,30 18,8 41.011,14 62.011,6 1.99,2 6.99,1.01 6.99,6.01 l -1,3.99 c -20.99,2 -40.997,3 -59.001,10 11,8 30.001,11.01 44.001,3 7.01,-6 13.01,-14 23.01,-14"
             style="fill:#6A4726;fill-opacity:1;fill-rule:nonzero;stroke:none"
             id="path164" /><path
             d="m 1045.21,1583.85 1,0 0,2 -1,0 0,-2 z"
             style="fill:#6A4726;fill-opacity:1;fill-rule:nonzero;stroke:none"
             id="path166" /><path
             d="m 1075.21,1572.85 c -1.01,-2.99 -8,-5 -6.01,-10 l 4,-2.99 c 19.01,3.99 44.01,6.99 57.01,-8.01 -23,-6 -49,-1 -67.01,12 -0.99,1.01 -0.99,3 -0.99,4 4,2.01 10,2.01 13,5"
             style="fill:#6A4726;fill-opacity:1;fill-rule:nonzero;stroke:none"
             id="path168" /><path
             d="m 1057.21,1551.85 c 0,-19 5,-39 3,-59 2,-4 1,-7 0,-10 -1.01,-31 2.99,-54 -1.01,-82.99 -1,-7.01 -8.99,-5 -13.99,-4.01 -11.01,0 -5,14.01 -5,19.01 l 2.99,1.99 -1.99,3.01 c 10,35.99 0,70 6,105.99 -2,7 -1,16 -5,21 -10,-11.99 -9.01,-34 -24.01,-40 2.01,8.01 2.01,19 2.01,29 7,10 17.99,13 27,22 5,2.01 6.99,-5 10,-6"
             style="fill:#6A4726;fill-opacity:1;fill-rule:nonzero;stroke:none"
             id="path170" /><path
             d="m 1161.21,1467.85 c 1,-2 -2.01,-2.99 -3.01,-2.99 -14,0 -27.99,5 -41.99,6.99 -22.01,8.01 -37.01,28.01 -42.01,50 -1.99,9 -5,17 -8.99,25 0,3.01 5,2 7,0 21.99,-8 34,-26.99 50.99,-43 10,-13.99 24.01,-27 38.01,-36"
             style="fill:#6A4726;fill-opacity:1;fill-rule:nonzero;stroke:none"
             id="path172" /><path
             d="m 1156.21,1525.85 c -5,-3 -12.01,2 -18.01,0 -9,0 -22.99,-0.99 -27.99,8 13.99,6.01 38.99,12 46,-8"
             style="fill:#6A4726;fill-opacity:1;fill-rule:nonzero;stroke:none"
             id="path174" /><path
             d="m 990.199,1485.85 c 3,14.01 2.004,29.01 12.011,39.01 l 3,0.99 c -3,-15 3.99,-35.99 -15.011,-40"
             style="fill:#6A4726;fill-opacity:1;fill-rule:nonzero;stroke:none"
             id="path176" /><path
             d="m 1164.2,1506.85 c -11.99,3.01 -26.99,-9 -32.99,7 11,-1 24,-1 32.99,-7"
             style="fill:#6A4726;fill-opacity:1;fill-rule:nonzero;stroke:none"
             id="path178" /><path
             d="m 981.203,1510.85 c 0,-10.99 0,-25 -9,-30.99 -3.004,-1.01 -5,-2.01 -8.004,-2.01 2.004,13 5,27.01 17.004,33"
             style="fill:#6A4726;fill-opacity:1;fill-rule:nonzero;stroke:none"
             id="path180" /><path
             d="m 1173.2,1482.85 c -0.99,-2.99 3.01,-6 1,-7.99 -8.99,0 -16,10 -21,16.99 4.01,-1 8.01,0 13.01,-1 l 6.99,-8"
             style="fill:#6A4726;fill-opacity:1;fill-rule:nonzero;stroke:none"
             id="path182" /><path
             d="m 953.199,1484.86 c 1,-4.01 -5.996,-4.01 -3,-8.01 -3.996,-4 -10,-3 -12.996,-1.99 2.996,3.99 7.996,10 14,10.99 l 1.996,-0.99"
             style="fill:#6A4726;fill-opacity:1;fill-rule:nonzero;stroke:none"
             id="path184" /><path
             d="m 1328.2,1829.86 c -5,-46 -9,-91 -0.99,-137.01 0.99,0 1.99,-2.99 3,-1 7.99,13.01 11,30 23.99,39 l 2.01,-0.99 c -2.01,-8.01 -1,-19.01 -5,-27.01 -8.01,-7.99 -15,-17.99 -26,-21 -7.01,1 -12.01,7 -19,9 -30,5 -52.01,33.01 -74,53.01 -7,6.99 -16,11.99 -25,16 l 0,1.99 c 11.99,-2.99 26.99,3.01 39,-2.99 16,2.99 32.99,-5 41,-19 10.99,-13.01 8,-36 25,-43.01 0.99,24 -4.01,47.01 -3.01,70 1.01,22.01 -1,44 4,65 4.01,5 12.01,2.01 15,-1.99"
             style="fill:#6A4726;fill-opacity:1;fill-rule:nonzero;stroke:none"
             id="path186" /><path
             d="m 1449.2,1742.85 c -5,-2.99 0,-8.99 -2.99,-15 -12.01,-12.99 -9,-35 -29,-41 -22,-6.99 -45,-9 -69.01,-11.99 -0.99,-3.01 -5,-4.01 -4,-8.01 8.01,-8 18.01,-6 29,-6.99 8.01,-2.01 15,-6.01 23.01,-7.01 -6,-2 -11,2.01 -16,-2 -17.01,-3 -30,7 -44,14.01 -1,2.99 -6,5 -3.01,7.99 21,21.01 49.01,28 72.01,46.01 15,13.99 32,25 47,41 -1,-5 -3.01,-11 -3.01,-17.01"
             style="fill:#6A4726;fill-opacity:1;fill-rule:nonzero;stroke:none"
             id="path188" /><path
             d="m 1435.21,1756.85 c -3,-5 -9,-10 -14,-11 0,3.01 -1,9.01 4,10 3.99,0 7,2 10,1"
             style="fill:#6A4726;fill-opacity:1;fill-rule:nonzero;stroke:none"
             id="path190" /><path
             d="m 1414.2,1753.86 c -1.99,-9 -5,-18.01 -12.99,-23.01 -4,3.01 -2.01,11 -2.01,15 4,3.01 3.01,8.01 8.01,9.01 1.99,0 5.99,1.99 6.99,-1"
             style="fill:#6A4726;fill-opacity:1;fill-rule:nonzero;stroke:none"
             id="path192" /><path
             d="m 1391.21,1751.85 c -8.01,-9 -3.01,-24 -13.01,-32.99 -2.99,0 -4,-5 -6.99,-4 -4,10 -2.01,21.99 2.99,30 4,5 11.01,5.99 17.01,6.99"
             style="fill:#6A4726;fill-opacity:1;fill-rule:nonzero;stroke:none"
             id="path194" /><path
             d="m 1216.21,1741.85 c -7.01,-1 -16,2.01 -19,9 l 0,1 c 5.99,-4 15.99,-2.99 19,-10"
             style="fill:#6A4726;fill-opacity:1;fill-rule:nonzero;stroke:none"
             id="path196" /><path
             d="m 1248.2,1715.85 c -11.99,0 -27.99,-1.99 -35.99,9.01 -1,1.99 0,4 1.99,5 13.01,0 29,-1 34,-14.01"
             style="fill:#6A4726;fill-opacity:1;fill-rule:nonzero;stroke:none"
             id="path198" /><path
             d="m 1272.21,1697.85 0,-2 c -16,1 -42,-14 -49.01,8.01 10,-1.01 22.01,-3.01 32.01,1 6,0 12,-4.01 17,-7.01"
             style="fill:#6A4726;fill-opacity:1;fill-rule:nonzero;stroke:none"
             id="path200" /><path
             d="m 1314.2,1669.86 c -1.99,-12.01 -17.99,-10 -26,-16.01 -35.99,-18 -50.99,-63 -86.99,-82 l -4,0 c -3.01,12 10.99,22 4,35 0,11 10,18.01 12.99,29 8.01,10 20,14.01 31.01,19.01 18.99,3.99 35,8.99 53.99,10 2.01,0.99 4,1.99 5,3.99 -11,13 -30,1.01 -43.99,8 -3,2 -8,1 -11.01,5 4,3.01 12.01,0 17.01,0 16.99,7 36.99,2 47.99,-11.99"
             style="fill:#6A4726;fill-opacity:1;fill-rule:nonzero;stroke:none"
             id="path202" /><path
             d="m 1320.21,1644.86 c 2,-28.01 0,-56.01 -5,-83.01 3.99,-48 2,-93 2,-139 l -2,-2 c -10,12 -20,25 -22.01,41 -11.99,10 -6.99,27 -15.99,39 -9.01,48 11.99,92 33,132 0,5 7,12.01 -1.01,16 -11,-7 -11,-22 -18.99,-30 -3,3 -3,11.01 -4,18 5,11 30,30 34,8.01"
             style="fill:#6A4726;fill-opacity:1;fill-rule:nonzero;stroke:none"
             id="path204" /><path
             d="m 1363.2,1638.85 c 16,-13 27.01,-38 49.01,-43 10.99,-12 28,-15.99 35,-30.99 -2,-2.01 -6,1.99 -9.01,1.99 -24,-1 -46.99,4 -65.99,17 -17,19 -22,44 -37,63 -5,-1.99 -2.01,-6.99 -2.01,-11 6,-25.99 25,-45.99 25,-74 -26.99,23.01 -30.99,57 -30.99,91 10.99,4 21.99,-6 30.99,-12 l 5,-2"
             style="fill:#6A4726;fill-opacity:1;fill-rule:nonzero;stroke:none"
             id="path206" /><path
             d="m 1425.21,1632.85 c -12.01,-2.99 -26.01,-12 -38,-4 -2,4 -8.01,5 -6,10 12.99,1.01 29,4 41,-2 l 3,-4"
             style="fill:#6A4726;fill-opacity:1;fill-rule:nonzero;stroke:none"
             id="path208" /><path
             d="m 1275.21,1627.85 c 1,-7.99 1,-17 3.99,-24 2.01,-12 -6.99,-21 -16,-25 l -1.99,0 c 2.99,15 -5,38 11,49 l 3,0"
             style="fill:#6A4726;fill-opacity:1;fill-rule:nonzero;stroke:none"
             id="path210" /><path
             d="m 1444.2,1607.85 0,-4 c -13.99,-3 -28.99,-3.99 -37.99,9 11.99,2.01 31,11 37.99,-5"
             style="fill:#6A4726;fill-opacity:1;fill-rule:nonzero;stroke:none"
             id="path212" /><path
             d="m 1251.21,1578.85 c 0,-13.99 -16,-13.99 -24,-18 1.99,8 6.99,16 11.99,24.01 1.01,5.99 3.01,11.99 9,13.99 5,-3.99 5,-13.99 3.01,-20"
             style="fill:#6A4726;fill-opacity:1;fill-rule:nonzero;stroke:none"
             id="path214" /><path
             d="m 1455.21,1577.85 c 1,-2 -1.01,-1 -2.01,-2 -2.99,5 -9,9.01 -10,14.01 9.01,1.99 9.01,-7.01 12.01,-12.01"
             style="fill:#6A4726;fill-opacity:1;fill-rule:nonzero;stroke:none"
             id="path216" /><path
             d="m 1337.21,1572.85 c 3,-12 19,-20 20,-32 1.99,-10.99 10,-24 3,-35 -5,5 -5,13 -9,19.01 -10,17.99 -28.01,32.99 -22.01,55.99 3.01,-0.99 6.01,-4 8.01,-8"
             style="fill:#6A4726;fill-opacity:1;fill-rule:nonzero;stroke:none"
             id="path218" /><path
             d="m 1223.2,1573.85 c -1.99,-5 -5,-12 -10.99,-13 -4.01,-0.99 -10,-0.99 -12,-3 5,7.01 15,14 22.99,16"
             style="fill:#6A4726;fill-opacity:1;fill-rule:nonzero;stroke:none"
             id="path220" /><path
             d="m 1351.21,1495.85 c 1.99,-7 6,-15 2.99,-24 0,-3 -1,-4 -2.99,-5 -18.01,15 -27.01,42 -21,66 7,-11 12,-25 21,-37"
             style="fill:#6A4726;fill-opacity:1;fill-rule:nonzero;stroke:none"
             id="path222" /><path
             d="m 1341.21,1452.85 c 4,-16 -7.01,-27.99 -12.01,-42 l -1.99,0 c -1,21 0,39.01 1.99,59.01 5,-4.01 8.01,-11.01 12.01,-17.01"
             style="fill:#6A4726;fill-opacity:1;fill-rule:nonzero;stroke:none"
             id="path224" /><path
             d="m 792.203,1826.85 c 5,-6 -2.004,-11.99 -3.004,-17.99 0,-19 -5,-38.01 -4,-58.01 -2.996,-5 -1,-10 -1.996,-15 3,-5.99 -3.004,-11.99 0.996,-18 -1.996,-8.99 2.004,-17.99 1,-26 2.004,-4 1.004,-11.99 8.004,-11.99 9,8.99 8,24 19,32.99 l 2.996,-1 c 1.004,-7.99 -1,-16 -2.996,-24 -9,-6 -16,-17 -29,-15 -3.004,1 -8.004,2.01 -10,5 5.996,17.01 -2,36.01 -1,55 -2.004,30 0,65 5,94 4,3.01 11,4 15,0"
             style="fill:#6A4726;fill-opacity:1;fill-rule:nonzero;stroke:none"
             id="path226" /><path
             d="m 907.203,1753.86 c -7.004,-5 -13.004,-11.01 -22.004,-11.01 -1,4 1.004,8 5,8 6.004,1 12.004,1 17.004,3.01"
             style="fill:#6A4726;fill-opacity:1;fill-rule:nonzero;stroke:none"
             id="path228" /><path
             d="m 727.203,1738.86 c 16,-16.01 26,-38.01 37.996,-57.01 -2.996,-1 -8.996,2 -12.996,5 -18.004,9 -32.004,20 -50,31 -10,9 -23.004,16.01 -30,30 9,4 16,-3.99 24,1.01 12.996,3.99 18.996,-10 31,-10"
             style="fill:#6A4726;fill-opacity:1;fill-rule:nonzero;stroke:none"
             id="path230" /><path
             d="m 874.199,1745.85 c -0.996,-11.99 -9,-20.99 -19,-25.99 l -2.996,0.99 c 2.996,10 4,23.01 15,28.01 2.996,-1.01 9,1.99 6.996,-3.01"
             style="fill:#6A4726;fill-opacity:1;fill-rule:nonzero;stroke:none"
             id="path232" /><path
             d="m 671.203,1729.86 0,-2.01 c -7.004,-1 -13,3 -17.004,8 l -4,12 c 8.004,-2.99 15,-11 21.004,-17.99"
             style="fill:#6A4726;fill-opacity:1;fill-rule:nonzero;stroke:none"
             id="path234" /><path
             d="m 843.203,1739.86 c -5,-12.01 0,-33.01 -16,-38.01 1,8.01 4,17.01 2.996,26 1.004,7.01 7.004,10 13.004,12.01"
             style="fill:#6A4726;fill-opacity:1;fill-rule:nonzero;stroke:none"
             id="path236" /><path
             d="m 904.199,1736.85 c -5,-16.99 -14,-31.99 -20,-48 -21.996,-18.99 -50,-22 -77.996,-22 -5,-1.99 -6.004,-8 -3,-11 6.996,-5 14,-3 24,-3 11.996,-4 29,-1 34,-15 -8,-1 -15,-2.99 -22.004,-5 -15,2.01 -25,16 -35.996,22.01 -3.004,0.99 -7,0.99 -8.004,5 l 2.004,5.99 c 26.996,20 56.996,37 84,59.01 7.996,1.99 13.996,10.99 22,12.99 l 0.996,-1"
             style="fill:#6A4726;fill-opacity:1;fill-rule:nonzero;stroke:none"
             id="path238" /><path
             d="m 699.199,1706.85 c -7.996,-6 -19,-4 -27.996,0 -2.004,3.01 -5,5 -4,9 11,0 26,1 31.996,-9"
             style="fill:#6A4726;fill-opacity:1;fill-rule:nonzero;stroke:none"
             id="path240" /><path
             d="m 725.199,1686.85 c -11.996,-4 -26.996,-10 -40,-1.99 -1.996,1.99 -5,5 -5,7.99 15,-2 33.004,8 45,-6"
             style="fill:#6A4726;fill-opacity:1;fill-rule:nonzero;stroke:none"
             id="path242" /><path
             d="m 768.203,1665.85 c 3,-2 8,-5.99 3,-9 -42.004,-16.99 -73,-56 -105,-86 -3,-2 -6.004,-3 -10,-4 0,12 -2.004,25 3.996,36 0,12.01 17.004,21 21.004,33 23.996,15 56,12 83.996,20 2.004,2 0,6 -1,8 -10.996,8 -25,-3.99 -36.996,3 -2.004,1 -7.004,3.01 -4,6 14,14 33,0 45,-7"
             style="fill:#6A4726;fill-opacity:1;fill-rule:nonzero;stroke:none"
             id="path244" /><path
             d="m 806.203,1639.86 c 31,-18.01 50,-55 85,-67.01 11,-2.99 23.996,-9 30,-19 -14,1.01 -26.004,1.01 -39,0 -14,3 -28.004,3 -39,13 -13.004,11 -19.004,27 -27,41 -5,11 -10,23 -16.004,34 -1.996,2 -7.996,4 -8.996,0 -3,-10 5,-18 7,-26.99 10.996,-15 14,-34.01 19,-51.01 -12.004,12 -25,28 -31,45 1,14 -3,31.01 8.996,39 5,-1 6.004,-6 11.004,-7.99"
             style="fill:#6A4726;fill-opacity:1;fill-rule:nonzero;stroke:none"
             id="path246" /><path
             d="m 777.203,1578.85 c 1,-18 -2.004,-38 -2.004,-55 3.004,-36 3.004,-73.99 0,-112 l -3.996,0 c -16.004,11 -13,32 -27.004,44 -2.996,21 -19,36 -12.996,60 2,38 23.996,67 37.996,100 1,8 8.004,16 3.004,24.01 l -4,2.99 c 3,3 10,6 11.996,-1 7.004,-20 -2.996,-43 -2.996,-63"
             style="fill:#6A4726;fill-opacity:1;fill-rule:nonzero;stroke:none"
             id="path248" /><path
             d="m 761.203,1636.85 c -1.004,-8 -5,-18 -11.004,-24 -2.996,3 -2.996,9 -1.996,13 3,5 6.996,10 13,11"
             style="fill:#6A4726;fill-opacity:1;fill-rule:nonzero;stroke:none"
             id="path250" /><path
             d="m 893.203,1618.85 0.996,-5 c -10.996,-3 -26.996,-6 -37.996,-1 -3,3 -10,7.01 -7.004,11 14.004,0 34.004,6.01 44.004,-5"
             style="fill:#6A4726;fill-opacity:1;fill-rule:nonzero;stroke:none"
             id="path252" /><path
             d="m 739.199,1595.85 c -0.996,-9 -5,-15 -12.996,-18 l -1.004,0 c -1,14 -11.996,34 7.004,43 2.996,-9 4,-15.99 6.996,-25"
             style="fill:#6A4726;fill-opacity:1;fill-rule:nonzero;stroke:none"
             id="path254" /><path
             d="m 908.203,1593.85 c -1,-6 -8.004,-6 -13.004,-8 -6.996,1 -13.996,5 -16.996,11 10,1 25,9 30,-3"
             style="fill:#6A4726;fill-opacity:1;fill-rule:nonzero;stroke:none"
             id="path256" /><path
             d="m 710.199,1594.86 c -1.996,-12.01 11.004,-26.01 -5,-33.01 l -5,-1 c 0,8 -6.996,18 -1,27 4.004,3 6,10 11,7.01"
             style="fill:#6A4726;fill-opacity:1;fill-rule:nonzero;stroke:none"
             id="path258" /><path
             d="m 916.203,1573.85 0,-1 c -3,-2 -8,3 -11.004,6 3.004,3 9,-1 11.004,-5"
             style="fill:#6A4726;fill-opacity:1;fill-rule:nonzero;stroke:none"
             id="path260" /><path
             d="m 804.199,1560.85 c 9.004,-20.99 29.004,-38 21,-63 -3.996,-1 0,6 -2.996,7.01 -8.004,21.99 -36,36.99 -33.004,62.99 2.004,20 8.004,-5 15,-7"
             style="fill:#6A4726;fill-opacity:1;fill-rule:nonzero;stroke:none"
             id="path262" /><path
             d="m 684.199,1563.85 c 2.004,-5 -0.996,-8.99 -5.996,-10 -7,0 -11,-2 -18.004,-1 6.004,5 15,15 23.004,17.01 l 0.996,-6.01"
             style="fill:#6A4726;fill-opacity:1;fill-rule:nonzero;stroke:none"
             id="path264" /><path
             d="m 797.203,1511.85 c 11,-16 25,-35 17.996,-56 -1.996,-0.99 -1,-5 -2.996,-5 -6,23 -34,44.01 -23.004,74.01 3.004,-4.01 7.004,-8.01 8.004,-13.01"
             style="fill:#6A4726;fill-opacity:1;fill-rule:nonzero;stroke:none"
             id="path266" /><path
             d="m 800.199,1438.85 c 0,-13 -5,-28 -13.996,-40 2,21.01 -3,40 2,61.01 6.996,-5 10,-12.01 11.996,-21.01"
             style="fill:#6A4726;fill-opacity:1;fill-rule:nonzero;stroke:none"
             id="path268" /></g></g></g></g></svg>
